<svg width="20" height="20" viewBox="0 0 20 20" fill="none" xmlns="http://www.w3.org/2000/svg">
<path d="M10 0C4.48607 0 0 4.48607 0 10C0 10.6396 0.0629561 11.265 0.178076 11.8717L0.140559 11.9167C0.158547 11.9319 0.17602 11.9447 0.194008 11.9596C1.10751 16.5384 5.15649 20 10 20C15.5139 20 20 15.5139 20 10C20 4.48607 15.5139 0 10 0ZM18.5171 6.48808C18.5037 9.73224 15.6103 10.424 14.3941 10.5707C15.4078 7.07498 15.119 3.71929 14.8975 2.20089C16.5178 3.22185 17.7822 4.7195 18.5171 6.48808ZM14.0197 1.71086C14.1875 2.57812 14.8212 6.48448 13.5893 10.5293C11.2452 9.90801 10.9127 8.201 10.469 5.87727C10.1686 4.30311 9.82886 2.53932 8.74884 0.873163C10.55 0.622695 12.3849 0.914324 14.0197 1.71086ZM7.90523 1.02914C9.04949 2.6457 9.39382 4.43699 9.69704 6.02477C10.1375 8.33205 10.5568 10.5162 13.3395 11.2787C13.1305 11.8564 12.8836 12.4197 12.6002 12.9648C6.82881 10.1691 3.28759 5.67787 2.51773 4.63331C3.79947 2.85076 5.70125 1.54358 7.90523 1.02914ZM2.06033 5.33225C3.1383 6.74196 6.67001 10.9485 12.2158 13.6504C11.9953 14.0177 11.7561 14.3734 11.4991 14.7161C9.98098 13.9621 8.55509 13.8455 7.1734 13.7329C5.26159 13.5769 3.28605 13.4102 0.915305 11.5305C0.551691 9.394 0.957406 7.1978 2.06033 5.33225ZM1.19411 12.7133C3.40708 14.2114 5.28549 14.3676 7.10967 14.5167C8.42353 14.6238 9.67211 14.7274 10.995 15.3472C9.92908 16.5945 8.53762 17.7202 6.73168 18.6129C4.09395 17.6084 2.03207 15.4276 1.19411 12.7133ZM7.79088 18.9446C9.43083 18.0288 10.7151 16.9216 11.7181 15.7136C12.1392 15.9464 12.9646 16.4899 13.1797 17.2723C13.3074 17.7361 13.1915 18.2375 12.8425 18.7635C11.9247 19.0623 10.9655 19.2144 10.0003 19.2142C9.25562 19.2139 8.51376 19.1234 7.79088 18.9446ZM13.9105 18.3405C14.0408 17.9075 14.0523 17.4794 13.9364 17.0601C13.662 16.0674 12.7549 15.4068 12.2073 15.0874C12.4672 14.7327 12.7093 14.3653 12.9327 13.9865C14.3683 14.633 15.8651 15.1341 17.4006 15.4821C16.4903 16.7077 15.2914 17.6895 13.9105 18.3405ZM17.8736 14.7813C16.236 14.4365 14.7148 13.9195 13.3151 13.2971C13.6334 12.6795 13.9074 12.0401 14.1351 11.3837C14.8253 11.3336 16.7587 11.0757 18.0663 9.74252C18.5013 9.29915 18.8313 8.76386 19.032 8.17607C19.1532 8.77648 19.2142 9.38748 19.2142 10C19.2161 11.6868 18.7522 13.3414 17.8736 14.7813Z" fill="white"/>
</svg>
