<svg width="20" height="20" viewBox="0 0 20 20" fill="none" xmlns="http://www.w3.org/2000/svg">
<path d="M6.23727 0.731803C4.99799 1.2341 3.87279 1.98126 2.929 2.92857C1.99897 3.85622 1.26142 4.95852 0.758749 6.17212C0.256075 7.38572 -0.00181928 8.68669 -0.000113665 10.0003C-0.000113665 11.2989 0.246397 12.5651 0.732233 13.7629C1.23447 15.0022 1.98163 16.1274 2.929 17.0712C3.87259 18.0187 4.99784 18.7659 6.23727 19.2679C7.4324 19.7534 8.71047 20.002 10.0004 20C11.3139 20.0015 12.6147 19.7436 13.8282 19.241C15.0417 18.7384 16.1439 18.001 17.0716 17.0712C18.0192 16.1277 18.7665 15.0024 19.2683 13.7629C19.7535 12.5679 20.002 11.29 20.0001 10.0003C20.0001 8.70139 19.7539 7.43513 19.2683 6.23684C18.7654 4.99655 18.0258 3.88283 17.0716 2.92857C16.1173 1.97431 15.0047 1.23477 13.7633 0.731803C12.5681 0.246809 11.2902 -0.00171325 10.0004 8.88913e-06C8.70155 8.88913e-06 7.43556 0.246243 6.23727 0.731803ZM2.49926 14.21C2.01757 13.9077 1.57374 13.5595 1.18076 13.1494C0.582746 11.4626 0.477211 9.64038 0.876492 7.89581C1.06353 7.52631 1.27765 7.17114 1.51709 6.83322C1.59143 6.72848 1.66024 6.61932 1.73983 6.51762L3.99657 7.85298V7.90963C3.99153 9.12105 4.11315 10.3297 4.35942 11.5158C4.36025 11.5213 4.36108 11.5244 4.36219 11.5294L2.61202 14.2736C2.57346 14.2542 2.53583 14.233 2.49926 14.21ZM9.20922 18.8492C9.59636 19.047 9.99795 19.2152 10.4105 19.3522C8.63701 19.431 6.87752 19.0049 5.33662 18.1232L9.11968 18.7973C9.1487 18.8158 9.17827 18.8335 9.20922 18.8492ZM9.1954 18.1664L4.73112 17.3707C4.20881 16.7365 3.739 16.0655 3.33524 15.3483C3.23244 15.1659 3.11775 14.9888 3.0307 14.7984L4.77921 12.0569C4.8179 12.0666 4.86101 12.0768 4.90993 12.0898C6.00375 12.3825 7.11692 12.5906 8.23782 12.7536C8.30332 12.7627 8.35804 12.7708 8.40474 12.7757L10.5006 16.3996C10.1375 16.9115 9.76833 17.4191 9.39327 17.9223C9.33082 18.0061 9.26449 18.0865 9.1954 18.1664ZM16.6228 16.6226C16.2731 16.9728 15.8961 17.2945 15.4952 17.5846C15.43 17.0629 15.3168 16.5483 15.1573 16.0472L17.3935 11.8754C18.0095 11.5949 18.6037 11.2768 19.1553 10.8824C19.2274 10.8313 19.2874 10.7741 19.3338 10.7116C19.1719 12.8675 18.2682 14.9775 16.6228 16.6226ZM16.5236 11.2121C16.6068 11.3707 16.6888 11.531 16.7712 11.6935L14.6112 15.7228C14.5987 15.7256 14.5869 15.7283 14.5744 15.73C13.4098 15.9492 12.2279 16.0629 11.0428 16.0696L8.88726 12.3424C9.22264 11.7193 9.5552 11.0946 9.88491 10.4684C10.1088 10.0439 10.3287 9.61669 10.5484 9.18972L15.0097 8.73152C15.556 9.53295 16.0737 10.3515 16.5236 11.2121ZM15.6185 6.43278C15.4068 6.99185 15.1802 7.54512 14.955 8.09949L10.609 8.54581C10.5573 8.47707 10.503 8.41024 10.4465 8.34545C9.93327 7.76427 9.41676 7.18668 8.90108 6.60744C8.90578 6.60163 8.91047 6.59721 8.91517 6.59196C8.70708 6.38414 8.49843 6.17632 8.29033 5.96794L9.50022 2.32528C9.58295 2.30234 9.66729 2.28571 9.75254 2.27553C10.4103 2.20866 11.0688 2.13293 11.7282 2.0948C12.132 2.07214 12.5379 2.05915 12.9486 2.08816L15.9421 5.46221C15.839 5.78776 15.7384 6.11414 15.6185 6.43278ZM16.6228 3.37737C17.4254 4.17859 18.0752 5.11951 18.5401 6.15393C17.9807 5.77125 17.3819 5.44949 16.754 5.19414C16.6551 5.15414 16.555 5.11709 16.4539 5.08305L13.5074 1.76206C13.5279 1.61863 13.5386 1.47493 13.5431 1.33012C14.6961 1.8 15.7432 2.49612 16.6228 3.37737ZM7.00112 1.15574C7.01273 1.1643 7.01826 1.17149 7.02489 1.17342C7.69837 1.40611 8.31106 1.7488 8.88864 2.15532L7.75834 5.55921C7.75259 5.56073 7.74695 5.56267 7.74148 5.56502C7.51017 5.66063 7.27444 5.74631 7.04672 5.84994C6.10849 6.27636 5.19375 6.74865 4.33206 7.31491L2.10158 5.9953C2.10402 5.9259 2.11717 5.85729 2.14055 5.7919C2.29034 5.39285 2.43763 4.99157 2.60704 4.60053C2.73798 4.30046 2.88532 4.00782 3.04838 3.72392C4.12563 2.52759 5.49467 1.63103 7.02185 1.12174C7.01494 1.13252 7.00776 1.14385 7.00112 1.15574Z" fill="white"/>
</svg>
