<svg width="26" height="25" viewBox="0 0 26 25" fill="none" xmlns="http://www.w3.org/2000/svg">
<path d="M7.7499 12.143H5.83323C5.70615 12.143 5.58427 12.1932 5.49441 12.2825C5.40455 12.3718 5.35406 12.4929 5.35406 12.6192C5.35406 12.7455 5.40455 12.8666 5.49441 12.9559C5.58427 13.0452 5.70615 13.0954 5.83323 13.0954H7.27073V14.0478H5.83323C5.70615 14.0478 5.58427 14.098 5.49441 14.1873C5.40455 14.2766 5.35406 14.3977 5.35406 14.524V16.4287C5.35406 16.555 5.40455 16.6762 5.49441 16.7655C5.58427 16.8548 5.70615 16.9049 5.83323 16.9049H7.7499C7.87698 16.9049 7.99886 16.8548 8.08872 16.7655C8.17858 16.6762 8.22907 16.555 8.22907 16.4287C8.22907 16.3024 8.17858 16.1813 8.08872 16.092C7.99886 16.0027 7.87698 15.9526 7.7499 15.9526H6.3124V15.0002H7.7499C7.87698 15.0002 7.99886 14.95 8.08872 14.8607C8.17858 14.7714 8.22907 14.6503 8.22907 14.524V12.6192C8.22907 12.4929 8.17858 12.3718 8.08872 12.2825C7.99886 12.1932 7.87698 12.143 7.7499 12.143ZM12.5416 11.1906C12.4145 11.1906 12.2926 11.2408 12.2027 11.3301C12.1129 11.4194 12.0624 11.5405 12.0624 11.6668C12.0624 11.7931 12.1129 11.9143 12.2027 12.0036C12.2926 12.0929 12.4145 12.143 12.5416 12.143H14.4582C14.5853 12.143 14.7072 12.0929 14.7971 12.0036C14.8869 11.9143 14.9374 11.7931 14.9374 11.6668C14.9374 11.5405 14.8869 11.4194 14.7971 11.3301C14.7072 11.2408 14.5853 11.1906 14.4582 11.1906H13.9791C13.9791 7.62874 14.0845 7.58112 13.682 7.41922C13.2795 7.25731 13.1214 7.55731 12.2014 8.4716C12.1567 8.516 12.1212 8.56871 12.0971 8.62672C12.0729 8.68473 12.0604 8.7469 12.0604 8.80969C12.0604 8.9365 12.1111 9.05812 12.2014 9.14779C12.2916 9.23746 12.414 9.28783 12.5416 9.28783C12.6047 9.28783 12.6673 9.27547 12.7257 9.25144C12.7841 9.22741 12.8371 9.19219 12.8818 9.14779C13.0686 8.95731 13.0207 8.56684 13.0207 11.1906H12.5416ZM19.2499 18.8097C19.1228 18.8097 19.0009 18.8599 18.9111 18.9492C18.8212 19.0385 18.7707 19.1596 18.7707 19.2859C18.7707 19.4122 18.8212 19.5333 18.9111 19.6226C19.0009 19.7119 19.1228 19.7621 19.2499 19.7621H21.1666C21.2936 19.7621 21.4155 19.7119 21.5054 19.6226C21.5953 19.5333 21.6457 19.4122 21.6457 19.2859V15.4764C21.6457 15.3501 21.5953 15.2289 21.5054 15.1396C21.4155 15.0503 21.2936 15.0002 21.1666 15.0002H19.2499C19.1228 15.0002 19.0009 15.0503 18.9111 15.1396C18.8212 15.2289 18.7707 15.3501 18.7707 15.4764C18.7707 15.6027 18.8212 15.7238 18.9111 15.8131C19.0009 15.9024 19.1228 15.9526 19.2499 15.9526H20.6874V16.9049H19.2499C19.1228 16.9049 19.0009 16.9551 18.9111 17.0444C18.8212 17.1337 18.7707 17.2548 18.7707 17.3811C18.7707 17.5074 18.8212 17.6285 18.9111 17.7178C19.0009 17.8071 19.1228 17.8573 19.2499 17.8573H20.6874V18.8097H19.2499Z" fill="white"/>
<path d="M24.5208 22.1429H24.0417V13.0952C24.0417 12.9689 23.9912 12.8478 23.9013 12.7585C23.8115 12.6692 23.6896 12.619 23.5625 12.619H17.3333V5.47619C17.3333 5.3499 17.2829 5.22878 17.193 5.13947C17.1031 5.05017 16.9812 5 16.8542 5H10.1458C10.0188 5 9.89687 5.05017 9.80701 5.13947C9.71715 5.22878 9.66667 5.3499 9.66667 5.47619V9.7619H3.4375C3.31042 9.7619 3.18854 9.81207 3.09868 9.90138C3.00882 9.99068 2.95833 10.1118 2.95833 10.2381V22.1429H2.47917C2.35208 22.1429 2.23021 22.193 2.14034 22.2823C2.05048 22.3716 2 22.4928 2 22.619V24.5238C2 24.6501 2.05048 24.7712 2.14034 24.8605C2.23021 24.9498 2.35208 25 2.47917 25H24.5208C24.6479 25 24.7698 24.9498 24.8597 24.8605C24.9495 24.7712 25 24.6501 25 24.5238V22.619C25 22.4928 24.9495 22.3716 24.8597 22.2823C24.7698 22.193 24.6479 22.1429 24.5208 22.1429ZM23.0833 13.5714V22.1429H17.3333V13.5714H23.0833ZM10.625 5.95238H16.375V22.1429H10.625V5.95238ZM3.91667 10.7143H9.66667V22.1429H3.91667V10.7143ZM24.0417 24.0476H2.95833V23.0952H24.0417V24.0476Z" fill="white"/>
</svg>
