<svg width="16" height="16" viewBox="0 0 16 16" fill="none" xmlns="http://www.w3.org/2000/svg">
<path d="M12.693 13.6664L12.2655 14.021L12.5542 14.4955L13.0786 15.3573H8.00007C3.93679 15.3573 0.642857 12.0633 0.642857 8.00007C0.642857 3.93679 3.93679 0.642857 8.00007 0.642857C12.0633 0.642857 15.3573 3.93679 15.3573 8.00007C15.3573 10.2792 14.3217 12.3159 12.693 13.6664Z" stroke="black" stroke-width="1.28571"/>
<path fill-rule="evenodd" clip-rule="evenodd" d="M5.42815 7.99972C5.42815 8.47311 5.0444 8.85686 4.57101 8.85686C4.09762 8.85686 3.71387 8.47311 3.71387 7.99972C3.71387 7.52633 4.09762 7.14258 4.57101 7.14258C5.0444 7.14258 5.42815 7.52633 5.42815 7.99972ZM8.85784 7.99972C8.85784 8.47311 8.47408 8.85686 8.0007 8.85686C7.52731 8.85686 7.14355 8.47311 7.14355 7.99972C7.14355 7.52633 7.52731 7.14258 8.0007 7.14258C8.47408 7.14258 8.85784 7.52633 8.85784 7.99972ZM11.4294 8.85686C11.9028 8.85686 12.2866 8.47311 12.2866 7.99972C12.2866 7.52633 11.9028 7.14258 11.4294 7.14258C10.956 7.14258 10.5723 7.52633 10.5723 7.99972C10.5723 8.47311 10.956 8.85686 11.4294 8.85686Z" fill="black"/>
</svg>
