<svg width="21" height="20" viewBox="0 0 21 20" fill="none" xmlns="http://www.w3.org/2000/svg">
<circle cx="10.6572" cy="10" r="10" fill="white"/>
<path d="M14.3916 14.4023H12.124L10.7002 11.7246C10.6494 11.6309 10.6104 11.5566 10.583 11.502C10.5596 11.4434 10.5342 11.377 10.5068 11.3027H10.4834C10.4482 11.3965 10.415 11.4727 10.3838 11.5312C10.3525 11.5898 10.3154 11.6621 10.2725 11.748L8.7959 14.4023H6.65723L9.22363 10.1953L6.83301 6H9.07129L10.3369 8.39062C10.3877 8.48828 10.4307 8.57422 10.4658 8.64844C10.5049 8.71875 10.5439 8.80273 10.583 8.90039H10.6064C10.6611 8.78711 10.7041 8.69727 10.7354 8.63086C10.7705 8.56445 10.8174 8.47656 10.876 8.36719L12.1885 6H14.3213L11.8955 10.1309L14.3916 14.4023Z" fill="black"/>
</svg>
