<svg width="19" height="22" viewBox="0 0 19 22" fill="none" xmlns="http://www.w3.org/2000/svg">
<path d="M15.5371 19H11.9043L9.44336 14.3906C9.39128 14.306 9.34245 14.1855 9.29688 14.0293C9.2513 13.873 9.20247 13.6842 9.15039 13.4629H9.11133C9.08529 13.5671 9.04622 13.7005 8.99414 13.8633C8.94206 14.026 8.8737 14.2116 8.78906 14.4199L6.30859 19H2.66602L7.14844 11.998L3.04688 4.99609H6.76758L8.82812 9.24414C8.90625 9.4069 8.97786 9.58594 9.04297 9.78125C9.11458 9.97656 9.18294 10.1882 9.24805 10.416H9.28711C9.33268 10.2728 9.39128 10.1003 9.46289 9.89844C9.54102 9.69661 9.63216 9.46549 9.73633 9.20508L12.0117 4.99609H15.4199L11.2012 11.9395L15.5371 19Z" fill="#F15E23"/>
</svg>
