<svg width="82" height="28" viewBox="0 0 82 28" fill="none" xmlns="http://www.w3.org/2000/svg">
<rect x="0.509399" y="1" width="80.9811" height="26" rx="5.5" fill="#F15E23"/>
<rect x="0.509399" y="1" width="80.9811" height="26" rx="5.5" fill="#0CBB46"/>
<rect x="0.509399" y="1" width="80.9811" height="26" rx="5.5" fill="url(#paint0_linear_1_175)"/>
<rect x="0.509399" y="1" width="80.9811" height="26" rx="5.5" stroke="url(#paint1_linear_1_175)"/>
<path d="M20.1465 9.27863H19.2737C19.441 8.9629 19.5295 8.61147 19.5319 8.2542C19.5324 7.78926 19.389 7.33557 19.1213 6.95544C18.8536 6.5753 18.4748 6.28737 18.0368 6.13119C17.5989 5.97501 17.1234 5.95824 16.6756 6.08319C16.2277 6.20814 15.8296 6.46867 15.5358 6.82901C15.5137 6.86097 14.5925 8.08209 14 8.87049L12.4584 6.82163C12.1636 6.46305 11.7652 6.20436 11.3177 6.08098C10.8702 5.9576 10.3955 5.97556 9.95863 6.13241C9.52174 6.28926 9.14401 6.57732 8.87717 6.95715C8.61034 7.33698 8.46743 7.79 8.46803 8.2542C8.4704 8.61147 8.55896 8.9629 8.72619 9.27863H7.85337C7.36452 9.27928 6.89588 9.47376 6.55021 9.81943C6.20453 10.1651 6.01005 10.6337 6.0094 11.1226V13.991C6.0094 14.154 6.07416 14.3104 6.18943 14.4256C6.3047 14.5409 6.46104 14.6057 6.62406 14.6057H6.82894V18.9083C6.78082 19.3235 6.8272 19.7442 6.96463 20.139C7.10206 20.5338 7.32698 20.8924 7.62256 21.1879C7.91814 21.4835 8.27672 21.7084 8.67149 21.8459C9.06627 21.9833 9.487 22.0297 9.90223 21.9816H18.0977C18.5129 22.0297 18.9336 21.9833 19.3284 21.8459C19.7232 21.7084 20.0818 21.4835 20.3774 21.1879C20.6729 20.8924 20.8978 20.5338 21.0353 20.139C21.1727 19.7442 21.2191 19.3235 21.171 18.9083V14.6057H21.3759C21.5389 14.6057 21.6952 14.5409 21.8105 14.4256C21.9258 14.3104 21.9905 14.154 21.9905 13.991V11.1226C21.9899 10.6337 21.7954 10.1651 21.4497 9.81943C21.104 9.47376 20.6354 9.27928 20.1465 9.27863ZM20.7612 11.1226V13.3763H14.6146V10.5079H20.1465C20.3095 10.5082 20.4657 10.573 20.5809 10.6882C20.6962 10.8034 20.761 10.9596 20.7612 11.1226ZM16.4906 7.6043C16.5851 7.48657 16.7051 7.39174 16.8415 7.32688C16.9779 7.26203 17.1271 7.22883 17.2781 7.22977C17.5498 7.22977 17.8104 7.3377 18.0025 7.52981C18.1946 7.72193 18.3026 7.9825 18.3026 8.2542C18.3026 8.52589 18.1946 8.78646 18.0025 8.97858C17.8104 9.1707 17.5498 9.27863 17.2781 9.27863H15.2293L16.4906 7.6043ZM9.69735 8.2542C9.69778 7.98263 9.80585 7.72232 9.99788 7.53029C10.1899 7.33827 10.4502 7.2302 10.7218 7.22977C10.87 7.22826 11.0168 7.25993 11.1512 7.32247C11.2856 7.385 11.4044 7.47682 11.4987 7.59118C11.5413 7.64937 12.2142 8.54104 12.7706 9.27863H10.7218C10.4502 9.27819 10.1899 9.17012 9.99788 8.9781C9.80585 8.78607 9.69778 8.52576 9.69735 8.2542ZM7.23872 11.1226C7.23893 10.9596 7.30376 10.8034 7.41898 10.6882C7.53421 10.573 7.69042 10.5082 7.85337 10.5079H13.3853V13.3763H7.23872V11.1226ZM8.05826 18.9083V14.6057H13.3853V20.7522H9.90223C8.60981 20.7522 8.05826 20.2007 8.05826 18.9083ZM19.9417 18.9083C19.9417 20.2007 19.3901 20.7522 18.0977 20.7522H14.6146V14.6057H19.9417V18.9083Z" fill="white"/>
<path d="M30.97 12.3115C30.7942 12.5817 30.5777 12.7852 30.3206 12.9219C30.0634 13.0553 29.7639 13.1221 29.4221 13.1221C28.8004 13.1221 28.2974 12.9023 27.9133 12.4629C27.5325 12.0202 27.342 11.4033 27.342 10.6123C27.342 9.78548 27.552 9.12305 27.9719 8.625C28.3951 8.12695 28.9452 7.87793 29.6223 7.87793C29.9446 7.87793 30.218 7.93652 30.4426 8.05371C30.6672 8.16764 30.843 8.34017 30.97 8.57129H30.9895V5.59766H32.5325V13H30.9895V12.3115H30.97ZM28.9094 10.5684C28.9094 11.0078 29.0022 11.3464 29.1877 11.584C29.3733 11.8216 29.6305 11.9404 29.9592 11.9404C30.2717 11.9404 30.5256 11.8151 30.7209 11.5645C30.9195 11.3138 31.0188 10.9818 31.0188 10.5684V10.1924C31.0188 9.86686 30.9244 9.59668 30.7356 9.38184C30.5468 9.16699 30.301 9.05957 29.9983 9.05957C29.6565 9.05957 29.3896 9.19466 29.1975 9.46484C29.0055 9.73177 28.9094 10.0996 28.9094 10.5684ZM38.5823 13H37.0442V12.2383H37.0198C36.831 12.5312 36.608 12.7526 36.3508 12.9023C36.0969 13.0488 35.8105 13.1221 35.4915 13.1221C34.912 13.1221 34.4775 12.9463 34.1877 12.5947C33.898 12.2432 33.7532 11.7174 33.7532 11.0176V8H35.2913V10.8809C35.2913 11.2324 35.3612 11.4977 35.5012 11.6768C35.6412 11.8525 35.8512 11.9404 36.1311 11.9404C36.4078 11.9404 36.6292 11.8444 36.7952 11.6523C36.9612 11.457 37.0442 11.1934 37.0442 10.8613V8H38.4504C38.6555 8 38.8085 7.93978 38.9094 7.81934C39.0103 7.69889 39.0608 7.51823 39.0608 7.27734C39.0608 7.20573 39.0527 7.1276 39.0364 7.04297C39.0234 6.95833 39.0022 6.86719 38.9729 6.76953H39.8713C39.8974 6.84766 39.9169 6.93392 39.9299 7.02832C39.943 7.12272 39.9495 7.22689 39.9495 7.34082C39.9495 7.72168 39.829 8.03092 39.5881 8.26855C39.3505 8.50293 39.0152 8.63151 38.5823 8.6543V13ZM36.0627 14.9141C35.8446 14.9141 35.664 14.849 35.5208 14.7188C35.3808 14.5885 35.3108 14.4307 35.3108 14.2451C35.3108 14.0498 35.3824 13.8903 35.5256 13.7666C35.6689 13.6462 35.8479 13.5859 36.0627 13.5859C36.2808 13.5859 36.4583 13.6478 36.595 13.7715C36.7349 13.8952 36.8049 14.0531 36.8049 14.2451C36.8049 14.4372 36.7349 14.5967 36.595 14.7236C36.4583 14.8506 36.2808 14.9141 36.0627 14.9141ZM48.8655 7.28223H48.1672V13H46.6243V12.3115H46.6047C46.429 12.5817 46.2125 12.7852 45.9553 12.9219C45.6982 13.0553 45.3987 13.1221 45.0569 13.1221C44.4319 13.1221 43.929 12.9023 43.5481 12.4629C43.1672 12.0202 42.9768 11.4033 42.9768 10.6123C42.9768 9.78548 43.1868 9.12305 43.6067 8.625C44.0266 8.12695 44.5767 7.87793 45.2571 7.87793C45.5793 7.87793 45.8528 7.93652 46.0774 8.05371C46.302 8.16764 46.4778 8.34017 46.6047 8.57129H46.6243V7.28223H45.0129V6.28125H46.6243V5.59766H48.1672V6.28125H48.8655V7.28223ZM46.6536 10.5684V10.1924C46.6536 9.86686 46.5592 9.59668 46.3704 9.38184C46.1816 9.16699 45.9358 9.05957 45.6331 9.05957C45.2913 9.05957 45.0243 9.19466 44.8323 9.46484C44.6402 9.73177 44.5442 10.0996 44.5442 10.5684C44.5442 11.0078 44.637 11.3464 44.8225 11.584C45.0081 11.8216 45.2652 11.9404 45.594 11.9404C45.9065 11.9404 46.1604 11.8151 46.3557 11.5645C46.5543 11.3138 46.6536 10.9818 46.6536 10.5684ZM51.9856 13.1221C51.1523 13.1221 50.4963 12.8877 50.0178 12.4189C49.5393 11.9502 49.3017 11.3171 49.3049 10.5195C49.3082 9.69271 49.5556 9.04655 50.0471 8.58105C50.5419 8.1123 51.2109 7.87793 52.054 7.87793C52.884 7.87793 53.5351 8.11068 54.0071 8.57617C54.4791 9.04167 54.7151 9.66016 54.7151 10.4316C54.7151 11.2585 54.4709 11.9144 53.9827 12.3994C53.4976 12.8812 52.8319 13.1221 51.9856 13.1221ZM52.0344 11.9404C52.4055 11.9404 52.6822 11.8167 52.8645 11.5693C53.05 11.3219 53.1428 10.9525 53.1428 10.4609C53.1428 9.99544 53.05 9.64551 52.8645 9.41113C52.679 9.17676 52.399 9.05957 52.0247 9.05957C51.6601 9.05957 51.3769 9.18652 51.175 9.44043C50.9732 9.69108 50.8723 10.0443 50.8723 10.5C50.8723 10.9818 50.9683 11.3431 51.1604 11.584C51.3557 11.8216 51.6471 11.9404 52.0344 11.9404ZM59.4758 13H58.0159V12.2822H57.9963C57.8303 12.5622 57.622 12.7721 57.3713 12.9121C57.1239 13.0521 56.8424 13.1221 56.5266 13.1221C56.0937 13.1221 55.7209 12.9902 55.4084 12.7266C55.0992 12.4596 54.9446 12.0869 54.9446 11.6084C54.9446 11.1462 55.0976 10.7686 55.4036 10.4756C55.7128 10.1826 56.1946 9.99219 56.8489 9.9043L58.0256 9.74805V9.65039C58.0256 9.41276 57.9491 9.23372 57.7961 9.11328C57.6431 8.98958 57.4316 8.92773 57.1614 8.92773C56.9563 8.92773 56.7268 8.96191 56.4729 9.03027C56.2222 9.09863 55.9667 9.20768 55.7063 9.35742L55.1838 8.44434C55.5256 8.24577 55.8642 8.10254 56.1995 8.01465C56.538 7.9235 56.9058 7.87793 57.303 7.87793C58.0484 7.87793 58.5969 8.05534 58.9485 8.41016C59.3 8.76497 59.4758 9.29883 59.4758 10.0117V13ZM58.0256 10.9688V10.6318L57.1174 10.749C56.8668 10.7816 56.678 10.8581 56.551 10.9785C56.4273 11.0957 56.3655 11.2454 56.3655 11.4277C56.3655 11.6035 56.4257 11.7484 56.5461 11.8623C56.6698 11.973 56.8359 12.0283 57.0442 12.0283C57.3339 12.0283 57.5699 11.929 57.7522 11.7305C57.9345 11.5286 58.0256 11.2747 58.0256 10.9688ZM57.3665 7.20898H56.2532L57.5227 5.63184H58.8948L57.3665 7.20898ZM65.5256 13H63.9875V10.2217C63.9875 9.83431 63.9176 9.5446 63.7776 9.35254C63.6409 9.15723 63.4342 9.05957 63.1575 9.05957C62.8905 9.05957 62.6708 9.16211 62.4983 9.36719C62.3258 9.57227 62.2395 9.83268 62.2395 10.1484V13H60.6965V8H62.2395V8.79102H62.259C62.4446 8.48503 62.6708 8.25716 62.9377 8.10742C63.2047 7.95443 63.5139 7.87793 63.8655 7.87793C64.4189 7.87793 64.8339 8.05046 65.1106 8.39551C65.3873 8.7373 65.5256 9.25163 65.5256 9.93848V13ZM31.6584 22.6875C31.3948 22.8372 31.1327 22.9463 30.8723 23.0146C30.6152 23.0863 30.3336 23.1221 30.0276 23.1221C29.1812 23.1221 28.5221 22.8893 28.05 22.4238C27.578 21.9583 27.342 21.3577 27.342 20.6221C27.342 19.7725 27.5927 19.1035 28.094 18.6152C28.5986 18.1237 29.2659 17.8779 30.0959 17.8779C30.4117 17.8779 30.6868 17.9089 30.9211 17.9707C31.1555 18.0293 31.3931 18.1253 31.634 18.2588L31.0627 19.2939C30.913 19.2126 30.7665 19.154 30.6233 19.1182C30.4833 19.0791 30.3287 19.0596 30.1594 19.0596C29.7688 19.0596 29.4628 19.1865 29.2415 19.4404C29.0201 19.6943 28.9094 20.054 28.9094 20.5195C28.9094 20.9655 29.0331 21.3138 29.2805 21.5645C29.5279 21.8151 29.8274 21.9404 30.179 21.9404C30.2734 21.9404 30.4019 21.9193 30.5647 21.877C30.7307 21.8314 30.8984 21.7598 31.0676 21.6621L31.6584 22.6875ZM34.8274 23.1221C33.9941 23.1221 33.3381 22.8877 32.8596 22.4189C32.3811 21.9502 32.1435 21.3171 32.1467 20.5195C32.15 19.6927 32.3974 19.0465 32.8889 18.5811C33.3837 18.1123 34.0527 17.8779 34.8958 17.8779C35.7258 17.8779 36.3769 18.1107 36.8489 18.5762C37.3209 19.0417 37.5569 19.6602 37.5569 20.4316C37.5569 21.2585 37.3127 21.9144 36.8245 22.3994C36.3394 22.8812 35.6737 23.1221 34.8274 23.1221ZM34.8762 21.9404C35.2473 21.9404 35.524 21.8167 35.7063 21.5693C35.8918 21.3219 35.9846 20.9525 35.9846 20.4609C35.9846 19.9954 35.8918 19.6455 35.7063 19.4111C35.5208 19.1768 35.2408 19.0596 34.8665 19.0596C34.5019 19.0596 34.2187 19.1865 34.0168 19.4404C33.815 19.6911 33.7141 20.0443 33.7141 20.5C33.7141 20.9818 33.8101 21.3431 34.0022 21.584C34.1975 21.8216 34.4889 21.9404 34.8762 21.9404ZM34.8616 17.209H33.7483L35.0178 15.6318H36.3899L34.8616 17.209ZM44.4465 22.9219C44.2903 22.987 44.1145 23.0358 43.9192 23.0684C43.7271 23.1042 43.5318 23.1221 43.3333 23.1221C42.7864 23.1221 42.3746 22.9902 42.0979 22.7266C41.8212 22.4629 41.6829 22.069 41.6829 21.5449V19.1377H40.8723V18H41.6829V16.7891L43.2209 16.3496V18H44.344V19.1377H43.2209V21.4473C43.2209 21.6393 43.2584 21.7793 43.3333 21.8672C43.4081 21.9518 43.5286 21.9941 43.6946 21.9941C43.776 21.9941 43.8541 21.9844 43.929 21.9648C44.0038 21.9421 44.0754 21.9144 44.1438 21.8818L44.4465 22.9219ZM50.0178 23H48.4797V20.1582C48.4797 19.7904 48.413 19.5153 48.2795 19.333C48.1461 19.1507 47.9459 19.0596 47.679 19.0596C47.4055 19.0596 47.1842 19.1621 47.0149 19.3672C46.8456 19.5723 46.761 19.8327 46.761 20.1484V23H45.218V15.5977H46.761V18.7422H46.7805C46.9693 18.4525 47.1923 18.236 47.4495 18.0928C47.7066 17.9495 47.9963 17.8779 48.3186 17.8779C48.885 17.8779 49.3098 18.0488 49.593 18.3906C49.8762 18.7324 50.0178 19.2451 50.0178 19.9287V23ZM55.9944 23H54.4563V22.2383H54.4319C54.2431 22.5312 54.0201 22.7526 53.7629 22.9023C53.509 23.0488 53.2226 23.1221 52.9036 23.1221C52.3241 23.1221 51.8896 22.9463 51.5999 22.5947C51.3101 22.2432 51.1653 21.7174 51.1653 21.0176V18H52.7034V20.8809C52.7034 21.2324 52.7734 21.4977 52.9133 21.6768C53.0533 21.8525 53.2633 21.9404 53.5432 21.9404C53.8199 21.9404 54.0413 21.8444 54.2073 21.6523C54.3733 21.457 54.4563 21.1934 54.4563 20.8613V18H55.8625C56.0676 18 56.2206 17.9398 56.3215 17.8193C56.4224 17.6989 56.4729 17.5182 56.4729 17.2773C56.4729 17.2057 56.4648 17.1276 56.4485 17.043C56.4355 16.9583 56.4143 16.8672 56.385 16.7695H57.2834C57.3095 16.8477 57.329 16.9339 57.342 17.0283C57.3551 17.1227 57.3616 17.2269 57.3616 17.3408C57.3616 17.7217 57.2411 18.0309 57.0002 18.2686C56.7626 18.5029 56.4273 18.6315 55.9944 18.6543V23ZM62.3665 18.6201C62.5911 18.8512 62.7587 19.1182 62.8694 19.4209C62.9801 19.7204 63.0354 20.0573 63.0354 20.4316C63.0354 21.2617 62.7913 21.9176 62.303 22.3994C61.818 22.8812 61.1523 23.1221 60.3059 23.1221C59.4726 23.1221 58.8167 22.8893 58.3381 22.4238C57.8629 21.9551 57.6252 21.3203 57.6252 20.5195C57.6252 19.6927 57.8726 19.0465 58.3674 18.5811C58.8622 18.1123 59.5312 17.8779 60.3743 17.8779C60.4849 17.8779 60.6021 17.8844 60.7258 17.8975C60.8528 17.9072 60.9846 17.9251 61.1213 17.9512C61.2157 17.9674 61.3069 17.9805 61.3948 17.9902C61.4859 17.9967 61.5738 18 61.6584 18C61.9482 18 62.1646 17.943 62.3079 17.8291C62.4511 17.7119 62.5227 17.5394 62.5227 17.3115C62.5227 17.2301 62.5146 17.1439 62.4983 17.0527C62.4853 16.9616 62.4641 16.8672 62.4348 16.7695H63.3723C63.4114 16.8802 63.439 16.9893 63.4553 17.0967C63.4749 17.2041 63.4846 17.3083 63.4846 17.4092C63.4846 17.777 63.3918 18.0618 63.2063 18.2637C63.0208 18.4655 62.7408 18.5843 62.3665 18.6201ZM60.345 19.0596C59.9804 19.0596 59.6972 19.1849 59.4954 19.4355C59.2935 19.6862 59.1926 20.041 59.1926 20.5C59.1926 20.9785 59.2887 21.3382 59.4807 21.5791C59.676 21.82 59.9674 21.9404 60.3547 21.9404C60.7258 21.9404 61.0025 21.8167 61.1848 21.5693C61.3704 21.3219 61.4631 20.9525 61.4631 20.4609C61.4631 19.9922 61.3704 19.6423 61.1848 19.4111C60.9993 19.1768 60.7193 19.0596 60.345 19.0596ZM60.7063 17.2041H60.0227V16.5986C60.218 16.5856 60.3629 16.5531 60.4573 16.501C60.5549 16.4489 60.6038 16.3773 60.6038 16.2861C60.6038 16.195 60.5696 16.1283 60.5012 16.0859C60.4361 16.0404 60.3368 16.0176 60.2034 16.0176C60.1415 16.0176 60.0829 16.0208 60.0276 16.0273C59.9755 16.0306 59.9137 16.0404 59.842 16.0566L59.7395 15.5342C59.8762 15.5016 60.0081 15.4821 60.135 15.4756C60.262 15.4691 60.345 15.4658 60.384 15.4658C60.7258 15.4658 60.9814 15.5309 61.1506 15.6611C61.3199 15.7881 61.4045 15.9801 61.4045 16.2373C61.4045 16.4391 61.3459 16.6003 61.2288 16.7207C61.1148 16.8411 60.9407 16.9225 60.7063 16.9648V17.2041ZM69.051 23H67.5129V20.2217C67.5129 19.8343 67.443 19.5446 67.303 19.3525C67.1663 19.1572 66.9596 19.0596 66.6829 19.0596C66.4159 19.0596 66.1962 19.1621 66.0237 19.3672C65.8512 19.5723 65.7649 19.8327 65.7649 20.1484V23H64.2219V18H65.7649V18.791H65.7844C65.97 18.485 66.1962 18.2572 66.4631 18.1074C66.7301 17.9544 67.0393 17.8779 67.3909 17.8779C67.9443 17.8779 68.3593 18.0505 68.636 18.3955C68.9127 18.7373 69.051 19.2516 69.051 19.9385V23ZM75.179 22.4287C75.179 23.2523 74.9185 23.944 74.3977 24.5039C73.8801 25.0671 73.12 25.3486 72.1174 25.3486C71.7659 25.3486 71.4387 25.3177 71.136 25.2559C70.8365 25.194 70.5256 25.0947 70.2034 24.958L70.6477 23.9131C70.8951 24.0173 71.1344 24.0921 71.3655 24.1377C71.5966 24.1865 71.8586 24.2109 72.1516 24.2109C72.6334 24.2109 73.0012 24.0693 73.2551 23.7861C73.509 23.5062 73.636 23.1367 73.636 22.6777V22.2822H73.6165C73.4407 22.5622 73.2226 22.7721 72.9622 22.9121C72.7017 23.0521 72.4006 23.1221 72.0588 23.1221C71.4176 23.1221 70.9097 22.8975 70.5354 22.4482C70.1643 21.9958 69.9788 21.3952 69.9788 20.6465C69.9788 19.7969 70.1871 19.123 70.6038 18.625C71.0204 18.127 71.5689 17.8779 72.2493 17.8779C72.552 17.8779 72.8173 17.9365 73.0452 18.0537C73.2763 18.1709 73.4667 18.3467 73.6165 18.5811H73.636V18H75.179V22.4287ZM73.6555 20.5977V20.2021C73.6555 19.8864 73.5611 19.6178 73.3723 19.3965C73.1868 19.1719 72.9443 19.0596 72.6448 19.0596C72.303 19.0596 72.0344 19.193 71.8391 19.46C71.6438 19.7269 71.5461 20.1029 71.5461 20.5879C71.5461 21.0046 71.6389 21.335 71.8245 21.5791C72.01 21.82 72.2639 21.9404 72.5862 21.9404C72.9084 21.9404 73.1672 21.8184 73.3625 21.5742C73.5579 21.3268 73.6555 21.0013 73.6555 20.5977Z" fill="white"/>
<defs>
<linearGradient id="paint0_linear_1_175" x1="0.999954" y1="6" x2="81" y2="27" gradientUnits="userSpaceOnUse">
<stop stop-color="#57EA88"/>
<stop offset="0.265" stop-color="#0CBB46"/>
<stop offset="0.74" stop-color="#0CC64A"/>
<stop offset="1" stop-color="#0CDD52"/>
</linearGradient>
<linearGradient id="paint1_linear_1_175" x1="-2.50005" y1="-3" x2="73.5" y2="39" gradientUnits="userSpaceOnUse">
<stop stop-color="#FC6B31"/>
<stop offset="0.335" stop-color="#FFD6C6"/>
<stop offset="0.7" stop-color="#FC5D1D"/>
<stop offset="1" stop-color="#FFD6C6"/>
</linearGradient>
</defs>
</svg>
