<svg width="18" height="20" viewBox="0 0 18 20" fill="none" xmlns="http://www.w3.org/2000/svg">
<path d="M0.0176008 13C0.0176008 16.87 4.03795 20 9.0088 20C13.9796 20 18 16.87 18 13C18 10.12 17.2807 8.59 17.2807 8.59L14.8274 10.62C14.8274 10.62 16.1889 6.34 12.7979 3.15C10.8456 1.31 8.68769 0 8.68769 0C8.68769 0 7.49314 2.41 6.13162 4.19C5.02698 5.62 4.38475 6.65 3.96088 8.8C3.19021 8.16 2.57367 7.28 2.0342 6.29C2.0342 6.29 -0.290669 9.31 0.0304457 12.99L0.0176008 13Z" fill="#F51E1E"/>
<path d="M13.9154 16.16C13.886 17.1633 13.3534 18.1177 12.4316 18.8192C11.5099 19.5206 10.2721 19.9134 8.9831 19.9134C7.69412 19.9134 6.45633 19.5206 5.53454 18.8192C4.61276 18.1177 4.08019 17.1633 4.05078 16.16C4.05078 14.81 4.4875 13.75 4.4875 13.75L6.56832 15.02C6.56832 15.02 6.32427 13.34 7.21055 11.19C7.72433 9.94002 9.17576 9.02002 9.17576 9.02002C9.17576 9.02002 9.83084 10.35 10.5887 11.32C11.1924 12.1 14.1081 14.14 13.9283 16.16H13.9154Z" fill="#C9273A"/>
</svg>
