<svg width="7" height="11" viewBox="0 0 7 11" fill="none" xmlns="http://www.w3.org/2000/svg">
<path d="M0.313065 0.5C0.171639 0.5 0.0566406 0.614998 0.0566406 0.756424V10.2436C0.0566406 10.385 0.171639 10.5 0.313065 10.5C0.454491 10.5 0.569489 10.385 0.569489 10.2436V0.756424C0.569489 0.614998 0.454491 0.5 0.313065 0.5ZM6.94348 2.53979H6.92937C5.89511 2.53979 4.8578 2.21461 3.84639 1.57355C2.80016 0.910528 1.38215 1.01053 0.926446 1.06445V5.28295L1.52679 4.85742C2.46142 4.19493 3.52265 3.80637 4.59585 3.73387C5.77886 3.65405 6.57974 2.94335 6.94348 2.53979Z" fill="black"/>
<path d="M0.313065 0.5C0.171639 0.5 0.0566406 0.614998 0.0566406 0.756424V10.2436C0.0566406 10.385 0.171639 10.5 0.313065 10.5C0.454491 10.5 0.569489 10.385 0.569489 10.2436V0.756424C0.569489 0.614998 0.454491 0.5 0.313065 0.5ZM6.94348 2.53979H6.92937C5.89511 2.53979 4.8578 2.21461 3.84639 1.57355C2.80016 0.910528 1.38215 1.01053 0.926446 1.06445V5.28295L1.52679 4.85742C2.46142 4.19493 3.52265 3.80637 4.59585 3.73387C5.77886 3.65405 6.57974 2.94335 6.94348 2.53979Z" fill="white"/>
</svg>
