<svg width="26" height="20" viewBox="0 0 26 20" fill="none" xmlns="http://www.w3.org/2000/svg">
<path d="M14.732 10.5264C15.0227 10.5264 15.2583 10.2907 15.2583 10.0001C15.2583 9.70939 15.0227 9.47375 14.732 9.47375C14.4413 9.47375 14.2057 9.70939 14.2057 10.0001C14.2057 10.2907 14.4413 10.5264 14.732 10.5264Z" fill="white"/>
<path d="M6.83737 11.0527H5.78475V10.0001C5.78475 9.86048 5.7293 9.72661 5.6306 9.62791C5.5319 9.5292 5.39803 9.47375 5.25844 9.47375C5.11885 9.47375 4.98498 9.5292 4.88628 9.62791C4.78758 9.72661 4.73213 9.86048 4.73213 10.0001V11.0527H3.67951C3.53992 11.0527 3.40605 11.1081 3.30735 11.2068C3.20865 11.3055 3.1532 11.4394 3.1532 11.579C3.1532 11.7186 3.20865 11.8525 3.30735 11.9512C3.40605 12.0499 3.53992 12.1053 3.67951 12.1053H4.73213V13.1579C4.73213 13.2975 4.78758 13.4314 4.88628 13.5301C4.98498 13.6288 5.11885 13.6842 5.25844 13.6842C5.39803 13.6842 5.5319 13.6288 5.6306 13.5301C5.7293 13.4314 5.78475 13.2975 5.78475 13.1579V12.1053H6.83737C6.97696 12.1053 7.11083 12.0499 7.20953 11.9512C7.30823 11.8525 7.36368 11.7186 7.36368 11.579C7.36368 11.4394 7.30823 11.3055 7.20953 11.2068C7.11083 11.1081 6.97696 11.0527 6.83737 11.0527Z" fill="white"/>
<path d="M13.1531 12.1054C13.4438 12.1054 13.6795 11.8697 13.6795 11.579C13.6795 11.2884 13.4438 11.0527 13.1531 11.0527C12.8625 11.0527 12.6268 11.2884 12.6268 11.579C12.6268 11.8697 12.8625 12.1054 13.1531 12.1054Z" fill="white"/>
<path d="M16.311 12.1054C16.6017 12.1054 16.8373 11.8697 16.8373 11.579C16.8373 11.2884 16.6017 11.0527 16.311 11.0527C16.0203 11.0527 15.7847 11.2884 15.7847 11.579C15.7847 11.8697 16.0203 12.1054 16.311 12.1054Z" fill="white"/>
<path d="M14.732 13.6842C15.0227 13.6842 15.2583 13.4486 15.2583 13.1579C15.2583 12.8672 15.0227 12.6316 14.732 12.6316C14.4413 12.6316 14.2057 12.8672 14.2057 13.1579C14.2057 13.4486 14.4413 13.6842 14.732 13.6842Z" fill="white"/>
<path d="M10.5216 12.6316H9.46894C9.32935 12.6316 9.19548 12.687 9.09678 12.7857C8.99808 12.8844 8.94263 13.0183 8.94263 13.1579C8.94263 13.2975 8.99808 13.4314 9.09678 13.5301C9.19548 13.6288 9.32935 13.6842 9.46894 13.6842H10.5216C10.6611 13.6842 10.795 13.6288 10.8937 13.5301C10.9924 13.4314 11.0479 13.2975 11.0479 13.1579C11.0479 13.0183 10.9924 12.8844 10.8937 12.7857C10.795 12.687 10.6611 12.6316 10.5216 12.6316Z" fill="white"/>
<path d="M24.1062 2.83226C23.7114 1.76495 22.9129 0.895576 21.8829 0.411654C20.8529 -0.0722688 19.674 -0.131963 18.6004 0.245447C17.8521 0.504761 17.1902 0.966402 16.6883 1.57912H13.8284C13.3266 0.966412 12.6647 0.504918 11.9163 0.245973C10.8426 -0.131455 9.66364 -0.0717759 8.63358 0.41214C7.60353 0.896057 6.80493 1.76544 6.41003 2.83279C6.00447 3.96961 5.70047 5.14015 5.50161 6.33065C4.5692 6.26627 3.64105 6.50588 2.85631 7.01354C2.07157 7.5212 1.47254 8.26956 1.14903 9.14641C-0.132539 12.7022 -0.368326 16.5679 0.574296 18.5484C0.697844 18.8522 0.881818 19.1277 1.11505 19.3582C1.34829 19.5887 1.62593 19.7695 1.93112 19.8895C2.14453 19.9635 2.36893 20.0008 2.5948 20C3.97321 20 5.61582 18.6842 7.14581 16.3158H12.8447C14.6305 19.0763 16.5683 20.4074 18.0594 19.8895C18.3646 19.7695 18.6422 19.5887 18.8755 19.3582C19.1087 19.1277 19.2927 18.8522 19.4162 18.5484C20.1125 17.0869 20.1646 14.6011 19.6304 11.9659C20.683 13.0795 21.7304 13.6832 22.6562 13.6832C22.8827 13.6839 23.1077 13.646 23.3214 13.5711C23.6269 13.4515 23.9048 13.271 24.1383 13.0405C24.3717 12.8101 24.5558 12.5345 24.6793 12.2306C25.6214 10.2517 25.3867 6.38696 24.1062 2.83226ZM18.4652 18.0953C18.399 18.2717 18.2984 18.4333 18.1693 18.5707C18.0402 18.708 17.8851 18.8183 17.7131 18.8953C16.7215 19.2421 15.0599 17.8811 13.581 15.5111C13.5337 15.4352 13.4679 15.3726 13.3897 15.3293C13.3115 15.2859 13.2236 15.2632 13.1342 15.2632H6.85634C6.76702 15.2632 6.67919 15.286 6.60111 15.3294C6.52303 15.3728 6.45727 15.4353 6.41003 15.5111C4.93057 17.8795 3.26953 19.2405 2.27744 18.8953C2.10537 18.8183 1.9503 18.708 1.82119 18.5707C1.69209 18.4333 1.59153 18.2717 1.52534 18.0953C0.7064 16.3769 0.964818 12.7632 2.13902 9.50325C2.37078 8.87435 2.79059 8.33207 3.34136 7.95014C3.89214 7.5682 4.54717 7.36513 5.21741 7.36853C5.58857 7.36858 5.95706 7.43121 6.3074 7.55379C6.94011 7.7729 7.48923 8.18299 7.87896 8.72747C7.92772 8.79541 7.99196 8.85076 8.06637 8.88893C8.14078 8.9271 8.22322 8.94698 8.30685 8.94694H11.6837C11.7673 8.94698 11.8497 8.9271 11.9241 8.88893C11.9985 8.85076 12.0628 8.79541 12.1115 8.72747C12.5011 8.18277 13.0502 7.77262 13.6831 7.55379C14.4945 7.26685 15.3861 7.31017 16.1658 7.67443C16.9455 8.0387 17.5509 8.69473 17.8515 9.50114C19.0257 12.7632 19.2841 16.3769 18.4652 18.0953ZM23.7283 11.7795C23.6618 11.9563 23.5608 12.118 23.4312 12.2553C23.3017 12.3927 23.1461 12.5029 22.9735 12.5795C21.9957 12.9258 20.3488 11.5859 18.8746 9.24483C18.8631 9.21272 18.8536 9.18062 18.842 9.14851C18.4466 8.08189 17.6482 7.21318 16.6187 6.72946C15.5891 6.24573 14.4107 6.18568 13.3373 6.56223C12.5885 6.82063 11.9261 7.28199 11.4242 7.89484H8.56632C8.06462 7.28148 7.4025 6.81942 6.65371 6.56012C6.61476 6.54644 6.57529 6.53802 6.53581 6.52591C6.72408 5.3901 7.01347 4.27339 7.40054 3.1891C7.70123 2.38277 8.30663 1.72683 9.08631 1.36258C9.86599 0.998338 10.7576 0.954945 11.5689 1.24175C12.2019 1.46011 12.7513 1.86991 13.141 2.41437C13.19 2.48193 13.2543 2.53687 13.3287 2.57467C13.4031 2.61246 13.4855 2.63202 13.5689 2.63174H16.9478C17.0314 2.63178 17.1139 2.6119 17.1883 2.57373C17.2627 2.53556 17.327 2.48021 17.3757 2.41227C17.7656 1.8678 18.3149 1.45787 18.9478 1.23912C19.7592 0.952738 20.6506 0.996334 21.4301 1.36053C22.2097 1.72472 22.8151 2.3804 23.1162 3.18647C24.2898 6.44749 24.5467 10.0596 23.7277 11.7774L23.7283 11.7795Z" fill="white"/>
<path d="M19.9952 4.2107C20.2859 4.2107 20.5215 3.97506 20.5215 3.68439C20.5215 3.39372 20.2859 3.15808 19.9952 3.15808C19.7045 3.15808 19.4689 3.39372 19.4689 3.68439C19.4689 3.97506 19.7045 4.2107 19.9952 4.2107Z" fill="white"/>
<path d="M12.1006 4.73701H11.0479V3.68439C11.0479 3.54481 10.9925 3.41094 10.8938 3.31223C10.7951 3.21353 10.6612 3.15808 10.5216 3.15808C10.382 3.15808 10.2482 3.21353 10.1495 3.31223C10.0508 3.41094 9.99531 3.54481 9.99531 3.68439V4.73701H8.94269C8.80311 4.73701 8.66924 4.79246 8.57053 4.89117C8.47183 4.98987 8.41638 5.12374 8.41638 5.26332C8.41638 5.40291 8.47183 5.53678 8.57053 5.63548C8.66924 5.73418 8.80311 5.78963 8.94269 5.78963H9.99531V6.84225C9.99531 6.98184 10.0508 7.11571 10.1495 7.21441C10.2482 7.31312 10.382 7.36857 10.5216 7.36857C10.6612 7.36857 10.7951 7.31312 10.8938 7.21441C10.9925 7.11571 11.0479 6.98184 11.0479 6.84225V5.78963H12.1006C12.2401 5.78963 12.374 5.73418 12.4727 5.63548C12.5714 5.53678 12.6269 5.40291 12.6269 5.26332C12.6269 5.12374 12.5714 4.98987 12.4727 4.89117C12.374 4.79246 12.2401 4.73701 12.1006 4.73701Z" fill="white"/>
<path d="M18.4162 5.78956C18.7069 5.78956 18.9425 5.55392 18.9425 5.26325C18.9425 4.97258 18.7069 4.73694 18.4162 4.73694C18.1255 4.73694 17.8899 4.97258 17.8899 5.26325C17.8899 5.55392 18.1255 5.78956 18.4162 5.78956Z" fill="white"/>
<path d="M21.574 5.78956C21.8647 5.78956 22.1004 5.55392 22.1004 5.26325C22.1004 4.97258 21.8647 4.73694 21.574 4.73694C21.2834 4.73694 21.0477 4.97258 21.0477 5.26325C21.0477 5.55392 21.2834 5.78956 21.574 5.78956Z" fill="white"/>
<path d="M19.9952 7.36854C20.2859 7.36854 20.5215 7.1329 20.5215 6.84223C20.5215 6.55156 20.2859 6.31592 19.9952 6.31592C19.7045 6.31592 19.4689 6.55156 19.4689 6.84223C19.4689 7.1329 19.7045 7.36854 19.9952 7.36854Z" fill="white"/>
</svg>
