<svg width="21" height="16" viewBox="0 0 21 16" fill="none" xmlns="http://www.w3.org/2000/svg">
<path d="M12.4761 7.34727L13.7702 8.64141C13.9004 8.27225 13.9667 7.88362 13.9663 7.49219C13.9663 5.58086 12.4112 4.02578 10.4999 4.02578C10.0972 4.02578 9.71045 4.09492 9.35068 4.22188L10.6448 5.51602C11.6222 5.58711 12.405 6.36992 12.4761 7.34727ZM5.14092 12.5816C6.80498 13.5082 8.63428 13.9969 10.4358 13.9969H10.4999C11.7589 14.0055 13.0312 13.7738 14.2522 13.3219L15.8479 14.9176C15.9929 15.0625 16.1827 15.1352 16.3729 15.1352C16.5632 15.1352 16.753 15.0625 16.8979 14.9176C17.1878 14.6277 17.1878 14.1578 16.8979 13.868L4.11553 1.08555C3.82568 0.795703 3.35576 0.795703 3.06592 1.08555C2.77607 1.37539 2.77607 1.84531 3.06592 2.13516L4.03311 3.10234C2.80029 3.97773 1.71123 5.09414 0.840527 6.3832C0.38584 7.05703 0.38584 7.92773 0.840527 8.60195C1.96357 10.2648 3.45068 11.641 5.14053 12.582L5.14092 12.5816ZM10.4026 9.47149C9.38701 9.42188 8.57021 8.60508 8.52061 7.58945L10.4026 9.47149ZM2.071 7.21328C2.89053 5.99961 3.92686 4.96055 5.0999 4.16875L7.24131 6.31016C7.10693 6.6793 7.03389 7.07695 7.03389 7.4918C7.03389 9.40312 8.58896 10.9582 10.5003 10.9582C10.9151 10.9582 11.3128 10.8848 11.6819 10.7504L13.0784 12.1469C12.2491 12.3879 11.4026 12.5121 10.5647 12.5121H10.4956C8.92568 12.5227 7.32568 12.0984 5.86357 11.2848C4.37607 10.4566 3.06475 9.24141 2.07178 7.77109C1.95732 7.60156 1.95732 7.38281 2.07178 7.21367L2.071 7.21328Z" fill="#B6B6B6"/>
<path d="M20.1595 6.38286C19.0364 4.71997 17.5493 3.3438 15.8595 2.40278C14.1954 1.47622 12.3661 0.987549 10.5642 0.987549H10.436C9.20986 0.987549 7.9708 1.21411 6.77979 1.65083L7.95596 2.827C8.77432 2.59263 9.60947 2.47192 10.436 2.47192H10.5052C12.0731 2.46021 13.6751 2.8856 15.1372 3.69927C16.6247 4.52739 17.936 5.74263 18.929 7.21294C19.0435 7.38247 19.0435 7.60122 18.929 7.77036C18.1153 8.97505 17.0884 10.0079 15.9263 10.7973L16.9923 11.8633C18.2146 10.9907 19.2946 9.88091 20.1591 8.60083C20.6138 7.927 20.6138 7.0563 20.1591 6.38247L20.1595 6.38286Z" fill="#B6B6B6"/>
</svg>
