<svg width="18" height="26" viewBox="0 0 18 26" fill="none" xmlns="http://www.w3.org/2000/svg">
<path d="M0.0176008 16.75C0.0176008 21.5875 4.03795 25.5 9.0088 25.5C13.9796 25.5 18 21.5875 18 16.75C18 13.15 17.2807 11.2375 17.2807 11.2375L14.8274 13.775C14.8274 13.775 16.1889 8.425 12.7979 4.4375C10.8456 2.1375 8.68769 0.5 8.68769 0.5C8.68769 0.5 7.49314 3.5125 6.13162 5.7375C5.02698 7.525 4.38475 8.8125 3.96088 11.5C3.19021 10.7 2.57367 9.6 2.0342 8.3625C2.0342 8.3625 -0.290669 12.1375 0.0304457 16.7375L0.0176008 16.75Z" fill="#F51E1E"/>
<path d="M13.9154 20.6999C13.886 21.954 13.3534 23.147 12.4316 24.0239C11.5099 24.9007 10.2721 25.3916 8.9831 25.3916C7.69412 25.3916 6.45633 24.9007 5.53454 24.0239C4.61276 23.147 4.08019 21.954 4.05078 20.6999C4.05078 19.0124 4.4875 17.6874 4.4875 17.6874L6.56832 19.2749C6.56832 19.2749 6.32427 17.1749 7.21055 14.4874C7.72433 12.9249 9.17576 11.7749 9.17576 11.7749C9.17576 11.7749 9.83084 13.4374 10.5887 14.6499C11.1924 15.6249 14.1081 18.1749 13.9283 20.6999H13.9154Z" fill="#C9273A"/>
<path d="M6.9366 20H5.55232V17.4424C5.55232 17.1113 5.49226 16.8638 5.37215 16.6997C5.25203 16.5356 5.07185 16.4536 4.83162 16.4536C4.58553 16.4536 4.38631 16.5459 4.23396 16.7305C4.08162 16.915 4.00545 17.1494 4.00545 17.4336V20H2.61678V13.3379H4.00545V16.168H4.02303C4.19295 15.9072 4.39363 15.7124 4.62508 15.5835C4.85652 15.4546 5.11726 15.3901 5.4073 15.3901C5.91707 15.3901 6.29939 15.5439 6.55428 15.8516C6.80916 16.1592 6.9366 16.6206 6.9366 17.2358V20ZM10.1842 20.1099C9.43416 20.1099 8.84383 19.8989 8.41316 19.4771C7.9825 19.0552 7.76863 18.4854 7.77156 17.7676C7.77449 17.0234 7.99715 16.4419 8.43953 16.0229C8.88484 15.6011 9.48689 15.3901 10.2457 15.3901C10.9928 15.3901 11.5787 15.5996 12.0035 16.0186C12.4283 16.4375 12.6407 16.9941 12.6407 17.6885C12.6407 18.4326 12.421 19.0229 11.9815 19.4595C11.545 19.8931 10.9459 20.1099 10.1842 20.1099ZM10.2281 19.0464C10.5621 19.0464 10.8111 18.9351 10.9752 18.7124C11.1422 18.4897 11.2257 18.1572 11.2257 17.7148C11.2257 17.2959 11.1422 16.981 10.9752 16.77C10.8082 16.5591 10.5562 16.4536 10.2193 16.4536C9.89119 16.4536 9.63631 16.5679 9.45467 16.7964C9.27303 17.022 9.18221 17.3398 9.18221 17.75C9.18221 18.1836 9.26863 18.5088 9.44148 18.7256C9.61726 18.9395 9.87947 19.0464 10.2281 19.0464ZM16.3541 19.9297C16.2135 19.9883 16.0553 20.0322 15.8795 20.0615C15.7066 20.0938 15.5308 20.1099 15.3521 20.1099C14.8599 20.1099 14.4893 19.9912 14.2403 19.7539C13.9913 19.5166 13.8668 19.1621 13.8668 18.6904V16.5239H13.1373V15.5H13.8668V14.4102L15.2511 14.0146V15.5H16.2618V16.5239H15.2511V18.6025C15.2511 18.7754 15.2847 18.9014 15.3521 18.9805C15.4195 19.0566 15.5279 19.0947 15.6773 19.0947C15.7506 19.0947 15.8209 19.0859 15.8883 19.0684C15.9556 19.0479 16.0201 19.0229 16.0816 18.9937L16.3541 19.9297Z" fill="white"/>
</svg>
