<svg width="26" height="25" viewBox="0 0 26 25" fill="none" xmlns="http://www.w3.org/2000/svg">
<path d="M13.4999 10.3333H8.92301C8.7496 10.3333 8.58329 10.2631 8.46067 10.1381C8.33805 10.013 8.26917 9.84348 8.26917 9.66667C8.26917 9.48986 8.33805 9.32029 8.46067 9.19526C8.58329 9.07024 8.7496 9 8.92301 9H13.4999C13.6733 9 13.8397 9.07024 13.9623 9.19526C14.0849 9.32029 14.1538 9.48986 14.1538 9.66667C14.1538 9.84348 14.0849 10.013 13.9623 10.1381C13.8397 10.2631 13.6733 10.3333 13.4999 10.3333ZM15.4615 13.6667H8.92301C8.7496 13.6667 8.58329 13.5964 8.46067 13.4714C8.33805 13.3464 8.26917 13.1768 8.26917 13C8.26917 12.8232 8.33805 12.6536 8.46067 12.5286C8.58329 12.4036 8.7496 12.3333 8.92301 12.3333H15.4615C15.6349 12.3333 15.8012 12.4036 15.9238 12.5286C16.0464 12.6536 16.1153 12.8232 16.1153 13C16.1153 13.1768 16.0464 13.3464 15.9238 13.4714C15.8012 13.5964 15.6349 13.6667 15.4615 13.6667ZM12.7545 16.3333H8.92301C8.7496 16.3333 8.58329 16.2631 8.46067 16.1381C8.33805 16.013 8.26917 15.8435 8.26917 15.6667C8.26917 15.4899 8.33805 15.3203 8.46067 15.1953C8.58329 15.0702 8.7496 15 8.92301 15H12.7545C12.928 15 13.0943 15.0702 13.2169 15.1953C13.3395 15.3203 13.4084 15.4899 13.4084 15.6667C13.4084 15.8435 13.3395 16.013 13.2169 16.1381C13.0943 16.2631 12.928 16.3333 12.7545 16.3333ZM11.1853 19H8.92301C8.7496 19 8.58329 18.9298 8.46067 18.8047C8.33805 18.6797 8.26917 18.5101 8.26917 18.3333C8.26917 18.1565 8.33805 17.987 8.46067 17.8619C8.58329 17.7369 8.7496 17.6667 8.92301 17.6667H11.1853C11.3587 17.6667 11.525 17.7369 11.6477 17.8619C11.7703 17.987 11.8392 18.1565 11.8392 18.3333C11.8392 18.5101 11.7703 18.6797 11.6477 18.8047C11.525 18.9298 11.3587 19 11.1853 19Z" fill="white"/>
<path d="M11.1854 23H8.26923C6.46658 23 5 21.5047 5 19.6667V8.33333C5 6.49533 6.46658 5 8.26923 5H16.1154C17.918 5 19.3846 6.49533 19.3846 8.33333V13.8C19.3846 13.9768 19.3157 14.1464 19.1931 14.2714C19.0705 14.3964 18.9042 14.4667 18.7308 14.4667C18.5574 14.4667 18.3911 14.3964 18.2684 14.2714C18.1458 14.1464 18.0769 13.9768 18.0769 13.8V8.33333C18.0769 7.23067 17.1968 6.33333 16.1154 6.33333H8.26923C7.18777 6.33333 6.30769 7.23067 6.30769 8.33333V19.6667C6.30769 20.7693 7.18777 21.6667 8.26923 21.6667H11.1854C11.3588 21.6667 11.5251 21.7369 11.6477 21.8619C11.7703 21.987 11.8392 22.1565 11.8392 22.3333C11.8392 22.5101 11.7703 22.6797 11.6477 22.8047C11.5251 22.9298 11.3588 23 11.1854 23Z" fill="white"/>
<path d="M17.4231 24.9998C14.8999 24.9998 12.8462 22.9065 12.8462 20.3332C12.8462 17.7598 14.8999 15.6665 17.4231 15.6665C19.9463 15.6665 22 17.7598 22 20.3332C22 22.9065 19.9463 24.9998 17.4231 24.9998ZM17.4231 16.9998C15.6205 16.9998 14.1539 18.4952 14.1539 20.3332C14.1539 22.1712 15.6205 23.6665 17.4231 23.6665C19.2258 23.6665 20.6923 22.1712 20.6923 20.3332C20.6923 18.4952 19.2258 16.9998 17.4231 16.9998Z" fill="white"/>
<path d="M16.987 22.0222C16.9011 22.0223 16.8161 22.0051 16.7367 21.9715C16.6574 21.938 16.5854 21.8889 16.5247 21.8269L15.6531 20.9382C15.5924 20.8763 15.5443 20.8028 15.5114 20.7219C15.4786 20.6411 15.4617 20.5544 15.4617 20.4669C15.4617 20.3793 15.4786 20.2926 15.5114 20.2118C15.5443 20.1309 15.5924 20.0574 15.6531 19.9955C15.7139 19.9336 15.7859 19.8845 15.8652 19.851C15.9446 19.8175 16.0296 19.8003 16.1154 19.8003C16.2013 19.8003 16.2863 19.8175 16.3656 19.851C16.4449 19.8845 16.517 19.9336 16.5777 19.9955L16.987 20.4129L18.2685 19.1069C18.3292 19.045 18.4013 18.9959 18.4806 18.9624C18.5599 18.9289 18.645 18.9116 18.7308 18.9116C18.8167 18.9116 18.9017 18.9289 18.981 18.9624C19.0603 18.9959 19.1324 19.045 19.1931 19.1069C19.2538 19.1687 19.3019 19.2422 19.3348 19.3231C19.3676 19.404 19.3846 19.4907 19.3846 19.5782C19.3846 19.6657 19.3676 19.7524 19.3348 19.8333C19.3019 19.9141 19.2538 19.9876 19.1931 20.0495L17.4493 21.8275C17.3886 21.8895 17.3166 21.9387 17.2372 21.9722C17.1579 22.0057 17.0729 22.0223 16.987 22.0222Z" fill="white"/>
</svg>
