<svg width="19" height="14" viewBox="0 0 19 14" fill="none" xmlns="http://www.w3.org/2000/svg">
<path fill-rule="evenodd" clip-rule="evenodd" d="M3.84863 12.524C0.799414 9.47478 0.799414 4.52479 3.84863 1.47557C3.99094 1.32822 4.06969 1.13088 4.06791 0.926034C4.06613 0.721193 3.98397 0.525245 3.83912 0.380395C3.69427 0.235545 3.49832 0.153381 3.29348 0.151601C3.08864 0.149821 2.89129 0.228567 2.74395 0.370878C-0.914649 4.02947 -0.914649 9.9701 2.74395 13.6287C2.81648 13.7012 2.90259 13.7588 2.99736 13.798C3.09213 13.8373 3.19371 13.8575 3.29629 13.8575C3.39887 13.8575 3.50044 13.8373 3.59522 13.798C3.68999 13.7588 3.7761 13.7012 3.84863 13.6287C3.92117 13.5562 3.97871 13.47 4.01796 13.3753C4.05722 13.2805 4.07742 13.1789 4.07742 13.0763C4.07742 12.9738 4.05722 12.8722 4.01796 12.7774C3.97871 12.6826 3.92117 12.5965 3.84863 12.524ZM14.8971 1.47557C17.9463 4.52479 17.9463 9.47478 14.8971 12.524C14.7548 12.6713 14.676 12.8687 14.6778 13.0735C14.6796 13.2784 14.7617 13.4743 14.9066 13.6192C15.0514 13.764 15.2474 13.8462 15.4522 13.848C15.6571 13.8497 15.8544 13.771 16.0018 13.6287C19.6604 9.9701 19.6604 4.02947 16.0018 0.370878C15.9292 0.298343 15.8431 0.240806 15.7483 0.20155C15.6536 0.162294 15.552 0.14209 15.4494 0.14209C15.3468 0.14209 15.2453 0.162294 15.1505 0.20155C15.0557 0.240806 14.9696 0.298343 14.8971 0.370878C14.8245 0.443413 14.767 0.529525 14.7277 0.624296C14.6885 0.719067 14.6683 0.820642 14.6683 0.923222C14.6683 1.0258 14.6885 1.12738 14.7277 1.22215C14.767 1.31692 14.8245 1.40303 14.8971 1.47557Z" fill="#FF0C0C"/>
<path fill-rule="evenodd" clip-rule="evenodd" d="M6.05799 10.1053C5.1797 9.22565 4.68639 8.03343 4.68639 6.79041C4.68639 5.54739 5.1797 4.35517 6.05799 3.47556C6.13053 3.40303 6.18806 3.31692 6.22732 3.22215C6.26658 3.12738 6.28678 3.0258 6.28678 2.92322C6.28678 2.82064 6.26658 2.71907 6.22732 2.62429C6.18806 2.52952 6.13053 2.44341 6.05799 2.37088C5.98546 2.29834 5.89935 2.24081 5.80457 2.20155C5.7098 2.16229 5.60823 2.14209 5.50565 2.14209C5.40307 2.14209 5.30149 2.16229 5.20672 2.20155C5.11195 2.24081 5.02584 2.29834 4.95331 2.37088C3.7819 3.5434 3.1239 5.133 3.1239 6.79041C3.1239 8.44781 3.7819 10.0374 4.95331 11.2099C5.10065 11.3523 5.298 11.431 5.50284 11.4292C5.70768 11.4274 5.90363 11.3453 6.04848 11.2004C6.19333 11.0556 6.27549 10.8596 6.27727 10.6548C6.27905 10.4499 6.2003 10.2526 6.05799 10.1053ZM12.6877 3.47556C13.566 4.35517 14.0593 5.54739 14.0593 6.79041C14.0593 8.03343 13.566 9.22565 12.6877 10.1053C12.6151 10.1778 12.5576 10.2639 12.5184 10.3587C12.4791 10.4534 12.4589 10.555 12.4589 10.6576C12.4589 10.7602 12.4791 10.8618 12.5184 10.9565C12.5576 11.0513 12.6151 11.1374 12.6877 11.2099C12.7602 11.2825 12.8463 11.34 12.9411 11.3793C13.0359 11.4185 13.1374 11.4387 13.24 11.4387C13.3426 11.4387 13.4442 11.4185 13.5389 11.3793C13.6337 11.34 13.7198 11.2825 13.7924 11.2099C14.9638 10.0374 15.6218 8.44781 15.6218 6.79041C15.6218 5.133 14.9638 3.5434 13.7924 2.37088C13.645 2.22857 13.4477 2.14982 13.2428 2.1516C13.038 2.15338 12.842 2.23554 12.6972 2.38039C12.5523 2.52524 12.4702 2.72119 12.4684 2.92603C12.4666 3.13087 12.5454 3.32822 12.6877 3.47556Z" fill="#FF0C0C"/>
<path d="M9.3728 9.82959C10.6672 9.82959 11.7166 8.78026 11.7166 7.48584C11.7166 6.19142 10.6672 5.14209 9.3728 5.14209C8.07839 5.14209 7.02905 6.19142 7.02905 7.48584C7.02905 8.78026 8.07839 9.82959 9.3728 9.82959Z" fill="#FF0C0C"/>
</svg>
