<svg width="50" height="20" viewBox="0 0 50 20" fill="none" xmlns="http://www.w3.org/2000/svg">
<path fill-rule="evenodd" clip-rule="evenodd" d="M50 4.375C50 3.21468 49.4238 2.10188 48.3982 1.28141C47.3727 0.460936 45.9817 0 44.5312 0H5.46875C4.01835 0 2.62735 0.460936 1.60176 1.28141C0.57617 2.10188 0 3.21468 0 4.375L0 15.625C0 16.7853 0.57617 17.8981 1.60176 18.7186C2.62735 19.5391 4.01835 20 5.46875 20H44.5312C45.9817 20 47.3727 19.5391 48.3982 18.7186C49.4238 17.8981 50 16.7853 50 15.625V4.375Z" fill="#F51E1E"/>
<path fill-rule="evenodd" clip-rule="evenodd" d="M7.75708 15.3819C4.70786 12.3327 4.70786 7.3827 7.75708 4.33348C7.89939 4.18613 7.97814 3.98879 7.97636 3.78394C7.97458 3.5791 7.89241 3.38316 7.74756 3.23831C7.60271 3.09346 7.40677 3.01129 7.20192 3.00951C6.99708 3.00773 6.79974 3.08648 6.65239 3.22879C2.9938 6.88738 2.9938 12.828 6.65239 16.4866C6.72493 16.5591 6.81104 16.6167 6.90581 16.6559C7.00058 16.6952 7.10216 16.7154 7.20474 16.7154C7.30732 16.7154 7.40889 16.6952 7.50366 16.6559C7.59843 16.6167 7.68454 16.5591 7.75708 16.4866C7.82961 16.4141 7.88715 16.328 7.92641 16.2332C7.96566 16.1384 7.98587 16.0368 7.98587 15.9343C7.98587 15.8317 7.96566 15.7301 7.92641 15.6353C7.88715 15.5406 7.82961 15.4544 7.75708 15.3819ZM18.8055 4.33348C21.8547 7.3827 21.8547 12.3327 18.8055 15.3819C18.6632 15.5293 18.5845 15.7266 18.5862 15.9314C18.588 16.1363 18.6702 16.3322 18.815 16.4771C18.9599 16.6219 19.1558 16.7041 19.3607 16.7059C19.5655 16.7077 19.7629 16.6289 19.9102 16.4866C23.5688 12.828 23.5688 6.88738 19.9102 3.22879C19.8377 3.15625 19.7516 3.09872 19.6568 3.05946C19.562 3.0202 19.4604 3 19.3579 3C19.2553 3 19.1537 3.0202 19.0589 3.05946C18.9642 3.09872 18.8781 3.15625 18.8055 3.22879C18.733 3.30132 18.6754 3.38743 18.6362 3.48221C18.5969 3.57698 18.5767 3.67855 18.5767 3.78113C18.5767 3.88371 18.5969 3.98529 18.6362 4.08006C18.6754 4.17483 18.733 4.26094 18.8055 4.33348Z" fill="white"/>
<path fill-rule="evenodd" clip-rule="evenodd" d="M9.96632 12.9632C9.08803 12.0836 8.59472 10.8913 8.59472 9.64832C8.59472 8.4053 9.08803 7.21308 9.96632 6.33348C10.0389 6.26094 10.0964 6.17483 10.1356 6.08006C10.1749 5.98529 10.1951 5.88371 10.1951 5.78113C10.1951 5.67855 10.1749 5.57698 10.1356 5.4822C10.0964 5.38743 10.0389 5.30132 9.96632 5.22879C9.89378 5.15625 9.80767 5.09872 9.7129 5.05946C9.61813 5.0202 9.51655 5 9.41397 5C9.31139 5 9.20982 5.0202 9.11505 5.05946C9.02028 5.09872 8.93417 5.15625 8.86163 5.22879C7.69022 6.40131 7.03223 7.99091 7.03223 9.64832C7.03223 11.3057 7.69022 12.8953 8.86163 14.0679C9.00898 14.2102 9.20632 14.2889 9.41116 14.2871C9.616 14.2853 9.81195 14.2032 9.9568 14.0583C10.1017 13.9135 10.1838 13.7175 10.1856 13.5127C10.1874 13.3079 10.1086 13.1105 9.96632 12.9632ZM16.596 6.33348C17.4743 7.21308 17.9676 8.4053 17.9676 9.64832C17.9676 10.8913 17.4743 12.0836 16.596 12.9632C16.5235 13.0357 16.4659 13.1218 16.4267 13.2166C16.3874 13.3114 16.3672 13.4129 16.3672 13.5155C16.3672 13.6181 16.3874 13.7197 16.4267 13.8144C16.4659 13.9092 16.5235 13.9953 16.596 14.0679C16.6685 14.1404 16.7547 14.1979 16.8494 14.2372C16.9442 14.2764 17.0458 14.2966 17.1483 14.2966C17.2509 14.2966 17.3525 14.2764 17.4473 14.2372C17.542 14.1979 17.6282 14.1404 17.7007 14.0679C18.8721 12.8953 19.5301 11.3057 19.5301 9.64832C19.5301 7.99091 18.8721 6.40131 17.7007 5.22879C17.5533 5.08648 17.356 5.00773 17.1512 5.00951C16.9463 5.01129 16.7504 5.09345 16.6055 5.2383C16.4607 5.38315 16.3785 5.5791 16.3767 5.78394C16.3749 5.98878 16.4537 6.18613 16.596 6.33348Z" fill="white"/>
<path d="M13.2812 12.6875C14.5757 12.6875 15.625 11.6382 15.625 10.3438C15.625 9.04933 14.5757 8 13.2812 8C11.9868 8 10.9375 9.04933 10.9375 10.3438C10.9375 11.6382 11.9868 12.6875 13.2812 12.6875Z" fill="white"/>
<path d="M30.5869 14.1265H26V6.42432H27.7349V12.7192H30.5869V14.1265Z" fill="white"/>
<path d="M31.7718 7.86914C31.4782 7.86914 31.2382 7.77962 31.0521 7.60059C30.8659 7.42155 30.7728 7.19954 30.7728 6.93457C30.7728 6.65885 30.8659 6.43506 31.0521 6.26318C31.2382 6.08773 31.4782 6 31.7718 6C32.069 6 32.3089 6.08773 32.4915 6.26318C32.6777 6.43506 32.7708 6.65885 32.7708 6.93457C32.7708 7.21029 32.6777 7.43587 32.4915 7.61133C32.3089 7.7832 32.069 7.86914 31.7718 7.86914ZM32.6097 14.1265H30.9124V8.62646H32.6097V14.1265Z" fill="white"/>
<path d="M38.7252 8.62646L36.6788 14.1265H34.7452L32.7955 8.62646H34.6109L35.567 12.0156C35.6207 12.209 35.6637 12.388 35.6959 12.5527C35.7281 12.7139 35.7478 12.8607 35.755 12.9932H35.7765C35.7872 12.8678 35.8087 12.7264 35.8409 12.5688C35.8767 12.4113 35.9215 12.2376 35.9752 12.0479L36.9527 8.62646H38.7252Z" fill="white"/>
<path d="M43.8417 11.8599H40.2538C40.2825 12.2573 40.4149 12.5527 40.6513 12.7461C40.8912 12.9395 41.2206 13.0361 41.6396 13.0361C41.7971 13.0361 42.0137 12.9896 42.2895 12.8965C42.5688 12.7998 42.8391 12.6494 43.1005 12.4453L43.8524 13.4067C43.4765 13.7039 43.0897 13.9206 42.6923 14.0566C42.2948 14.1927 41.8562 14.2607 41.3764 14.2607C40.4883 14.2607 39.7991 14.0155 39.3085 13.5249C38.8179 13.0308 38.5727 12.3433 38.5727 11.4624C38.5727 10.5851 38.8323 9.87077 39.3515 9.31934C39.8707 8.7679 40.5277 8.49219 41.3227 8.49219C42.0854 8.49219 42.6959 8.72314 43.1542 9.18506C43.6125 9.64339 43.8417 10.3112 43.8417 11.1885V11.8599ZM42.268 10.8179C42.268 10.3918 42.1874 10.0892 42.0263 9.91016C41.8687 9.72754 41.6306 9.63623 41.3119 9.63623C41.0398 9.63623 40.8035 9.74186 40.6029 9.95312C40.406 10.1644 40.286 10.4526 40.2431 10.8179H42.268Z" fill="white"/>
</svg>
