<svg width="19" height="18" viewBox="0 0 19 18" fill="none" xmlns="http://www.w3.org/2000/svg">
<path d="M9.19829 0.542055C9.19829 0.310788 9.0378 0.104387 8.79886 0.0291844C8.55991 -0.0454182 8.29496 0.0260116 8.14084 0.209088L4.18049 4.87749H0.591054C0.264572 4.87749 0 5.11991 0 5.41943V12.5806C0 12.8801 0.264572 13.1225 0.591054 13.1225H4.18049L8.14084 17.7909C8.25456 17.9254 8.42832 18 8.60723 18C8.67129 18 8.73592 17.9905 8.79886 17.9708C9.0378 17.8957 9.19829 17.6893 9.19829 17.4581C9.19829 11.301 9.19829 6.5563 9.19829 0.542055Z" fill="#F68C1F"/>
<path d="M13.575 8.99969C13.575 7.38235 12.6249 5.86972 11.0959 5.05158C10.8142 4.90023 10.4523 4.98864 10.2878 5.24632C10.1233 5.50451 10.2179 5.83637 10.5002 5.9872C11.6679 6.61223 12.3929 7.76651 12.3929 8.9996C12.3929 10.2327 11.6673 11.387 10.5002 12.0126C10.2179 12.1634 10.1233 12.4953 10.2878 12.7536C10.3974 12.9261 10.5955 13.0224 10.7986 13.0224C10.8996 13.0224 11.0023 12.9986 11.0959 12.9483C12.6249 12.1296 13.575 10.6164 13.575 8.9996V8.99969Z" fill="#F68C1F"/>
<path d="M19 8.99976C19 6.69969 17.6489 4.54839 15.4734 3.38459C15.1922 3.23324 14.8297 3.32165 14.6652 3.57933C14.5007 3.83752 14.5954 4.16946 14.8776 4.32029C16.6912 5.2909 17.8178 7.08393 17.8178 8.99976C17.8178 10.9156 16.6911 12.7092 14.8776 13.6798C14.5954 13.8307 14.5007 14.1625 14.6652 14.4208C14.7749 14.5933 14.9729 14.6896 15.1761 14.6896C15.2771 14.6896 15.3797 14.6658 15.4733 14.6154C17.6488 13.4516 19 11.2998 19 8.99968L19 8.99976Z" fill="#F68C1F"/>
</svg>
