<svg width="16" height="16" viewBox="0 0 16 16" fill="none" xmlns="http://www.w3.org/2000/svg">
<path d="M8 11.199C9.91956 11.199 11.4812 9.63731 11.4812 7.71775V3.48122C11.4812 1.56169 9.91956 0 8 0C6.08044 0 4.51878 1.56169 4.51878 3.48122V7.71772C4.51878 9.63734 6.08044 11.199 8 11.199ZM5.51878 3.48122C5.51878 2.11306 6.63184 1 8 1C9.36816 1 10.4812 2.11306 10.4812 3.48122V7.71772C10.4812 9.08587 9.36816 10.199 8 10.199C6.63184 10.199 5.51878 9.08587 5.51878 7.71772V3.48122ZM13.7372 8.72422C13.503 10.0547 12.8016 11.2736 11.7622 12.1566C10.8381 12.9416 9.69516 13.4167 8.5 13.5208V15H11.75C12.0262 15 12.25 15.2238 12.25 15.5C12.25 15.7762 12.0262 16 11.75 16H4.25C3.97384 16 3.75 15.7762 3.75 15.5C3.75 15.2238 3.97384 15 4.25 15H7.5V13.5208C6.30484 13.4167 5.16191 12.9416 4.23784 12.1566C3.19841 11.2736 2.49703 10.0547 2.26288 8.72422C2.21503 8.45225 2.39666 8.19297 2.66863 8.14513C2.94056 8.09728 3.19988 8.27894 3.24772 8.55087C3.65481 10.8639 5.65344 12.5427 8 12.5427C10.3466 12.5427 12.3452 10.8639 12.7523 8.55087C12.8001 8.27891 13.0594 8.09722 13.3314 8.14513C13.6034 8.19297 13.785 8.45225 13.7372 8.72422ZM13.7447 3.36775V6.25634C13.7447 6.5325 13.5208 6.75634 13.2447 6.75634C12.9685 6.75634 12.7447 6.5325 12.7447 6.25634V3.36775C12.7447 3.09159 12.9685 2.86775 13.2447 2.86775C13.5208 2.86775 13.7447 3.09159 13.7447 3.36775ZM16 4.05569V5.56831C16 5.84447 15.7762 6.06831 15.5 6.06831C15.2238 6.06831 15 5.84447 15 5.56831V4.05569C15 3.77953 15.2238 3.55569 15.5 3.55569C15.7762 3.55569 16 3.77953 16 4.05569ZM2.25531 6.25631V3.36772C2.25531 3.09156 2.47916 2.86772 2.75531 2.86772C3.03147 2.86772 3.25531 3.09156 3.25531 3.36772V6.25631C3.25531 6.53247 3.03147 6.75631 2.75531 6.75631C2.47916 6.75631 2.25531 6.53247 2.25531 6.25631ZM1 4.05569V5.56831C1 5.84447 0.776156 6.06831 0.5 6.06831C0.223844 6.06831 0 5.84447 0 5.56831V4.05569C0 3.77953 0.223844 3.55569 0.5 3.55569C0.776156 3.55569 1 3.77953 1 4.05569Z" fill="black"/>
<path d="M8 11.199C9.91956 11.199 11.4812 9.63731 11.4812 7.71775V3.48122C11.4812 1.56169 9.91956 0 8 0C6.08044 0 4.51878 1.56169 4.51878 3.48122V7.71772C4.51878 9.63734 6.08044 11.199 8 11.199ZM5.51878 3.48122C5.51878 2.11306 6.63184 1 8 1C9.36816 1 10.4812 2.11306 10.4812 3.48122V7.71772C10.4812 9.08587 9.36816 10.199 8 10.199C6.63184 10.199 5.51878 9.08587 5.51878 7.71772V3.48122ZM13.7372 8.72422C13.503 10.0547 12.8016 11.2736 11.7622 12.1566C10.8381 12.9416 9.69516 13.4167 8.5 13.5208V15H11.75C12.0262 15 12.25 15.2238 12.25 15.5C12.25 15.7762 12.0262 16 11.75 16H4.25C3.97384 16 3.75 15.7762 3.75 15.5C3.75 15.2238 3.97384 15 4.25 15H7.5V13.5208C6.30484 13.4167 5.16191 12.9416 4.23784 12.1566C3.19841 11.2736 2.49703 10.0547 2.26288 8.72422C2.21503 8.45225 2.39666 8.19297 2.66863 8.14513C2.94056 8.09728 3.19988 8.27894 3.24772 8.55087C3.65481 10.8639 5.65344 12.5427 8 12.5427C10.3466 12.5427 12.3452 10.8639 12.7523 8.55087C12.8001 8.27891 13.0594 8.09722 13.3314 8.14513C13.6034 8.19297 13.785 8.45225 13.7372 8.72422ZM13.7447 3.36775V6.25634C13.7447 6.5325 13.5208 6.75634 13.2447 6.75634C12.9685 6.75634 12.7447 6.5325 12.7447 6.25634V3.36775C12.7447 3.09159 12.9685 2.86775 13.2447 2.86775C13.5208 2.86775 13.7447 3.09159 13.7447 3.36775ZM16 4.05569V5.56831C16 5.84447 15.7762 6.06831 15.5 6.06831C15.2238 6.06831 15 5.84447 15 5.56831V4.05569C15 3.77953 15.2238 3.55569 15.5 3.55569C15.7762 3.55569 16 3.77953 16 4.05569ZM2.25531 6.25631V3.36772C2.25531 3.09156 2.47916 2.86772 2.75531 2.86772C3.03147 2.86772 3.25531 3.09156 3.25531 3.36772V6.25631C3.25531 6.53247 3.03147 6.75631 2.75531 6.75631C2.47916 6.75631 2.25531 6.53247 2.25531 6.25631ZM1 4.05569V5.56831C1 5.84447 0.776156 6.06831 0.5 6.06831C0.223844 6.06831 0 5.84447 0 5.56831V4.05569C0 3.77953 0.223844 3.55569 0.5 3.55569C0.776156 3.55569 1 3.77953 1 4.05569Z" fill="white"/>
</svg>
