<svg width="26" height="25" viewBox="0 0 26 25" fill="none" xmlns="http://www.w3.org/2000/svg">
<path d="M10.8982 20.8977H5.64255C5.35516 20.8977 5.12219 21.1273 5.12219 21.4105C5.12219 21.6937 5.35516 21.9233 5.64255 21.9233H10.8982C11.1856 21.9233 11.4186 21.6937 11.4186 21.4105C11.4186 21.1273 11.1856 20.8977 10.8982 20.8977ZM18.7557 20.8977H13.5C13.2126 20.8977 12.9797 21.1273 12.9797 21.4105C12.9797 21.6937 13.2126 21.9233 13.5 21.9233H18.7557C19.043 21.9233 19.276 21.6937 19.276 21.4105C19.276 21.1273 19.043 20.8977 18.7557 20.8977ZM18.7557 8.07715H5.64255C5.35516 8.07715 5.12219 8.30674 5.12219 8.58997C5.12219 8.8732 5.35516 9.10279 5.64255 9.10279H18.7557C19.043 9.10279 19.276 8.8732 19.276 8.58997C19.276 8.30674 19.043 8.07715 18.7557 8.07715ZM18.7557 10.6413H13.5C13.2126 10.6413 12.9797 10.8708 12.9797 11.1541C12.9797 11.4373 13.2126 11.6669 13.5 11.6669H18.7557C19.043 11.6669 19.276 11.4373 19.276 11.1541C19.276 10.8708 19.043 10.6413 18.7557 10.6413ZM18.7557 13.2054H13.5C13.2126 13.2054 12.9797 13.4349 12.9797 13.7182C12.9797 14.0014 13.2126 14.231 13.5 14.231H18.7557C19.043 14.231 19.276 14.0014 19.276 13.7182C19.276 13.4349 19.043 13.2054 18.7557 13.2054ZM18.7557 15.7695H13.5C13.2126 15.7695 12.9797 15.999 12.9797 16.2823C12.9797 16.5655 13.2126 16.7951 13.5 16.7951H18.7557C19.043 16.7951 19.276 16.5655 19.276 16.2823C19.276 15.999 19.043 15.7695 18.7557 15.7695ZM18.7557 18.3336H13.5C13.2126 18.3336 12.9797 18.5631 12.9797 18.8464C12.9797 19.1296 13.2126 19.3592 13.5 19.3592H18.7557C19.043 19.3592 19.276 19.1296 19.276 18.8464C19.276 18.5631 19.043 18.3336 18.7557 18.3336ZM10.8982 18.3336H5.64255C5.35516 18.3336 5.12219 18.5631 5.12219 18.8464C5.12219 19.1296 5.35516 19.3592 5.64255 19.3592H10.8982C11.1856 19.3592 11.4186 19.1296 11.4186 18.8464C11.4186 18.5631 11.1856 18.3336 10.8982 18.3336ZM10.8982 10.6413H5.64255C5.35516 10.6413 5.12219 10.8708 5.12219 11.1541V16.3336C5.12219 16.6168 5.35516 16.8464 5.64255 16.8464H10.8982C11.1856 16.8464 11.4186 16.6168 11.4186 16.3336V11.1541C11.4186 10.8708 11.1856 10.6413 10.8982 10.6413ZM10.3778 15.8207H6.16292V11.6669H10.3778V15.8207Z" fill="white"/>
<path d="M23.9593 7.5641H22.3982V6.02564C22.3982 5.4601 21.9313 5 21.3575 5H3.04072C2.46687 5 2 5.4601 2 6.02564V22.4359C2 23.8497 3.16717 25 4.60181 25H22.3982C23.8328 25 25 23.8497 25 22.4359V8.58974C25 8.02421 24.5331 7.5641 23.9593 7.5641ZM23.9593 22.4359C23.9593 23.2842 23.259 23.9744 22.3982 23.9744H4.60181C3.74103 23.9744 3.04072 23.2842 3.04072 22.4359V6.02564H21.3575V21.6667C21.3575 22.3736 21.9411 22.9487 22.6584 22.9487C22.9457 22.9487 23.1787 22.7191 23.1787 22.4359C23.1787 22.1527 22.9457 21.9231 22.6584 21.9231C22.5149 21.9231 22.3982 21.8081 22.3982 21.6667V8.58974H23.9593V22.4359Z" fill="white"/>
</svg>
