<svg width="21" height="20" viewBox="0 0 21 20" fill="none" xmlns="http://www.w3.org/2000/svg">
<path d="M10.2537 0C8.27585 0 6.34245 0.58649 4.69796 1.6853C3.05347 2.78412 1.77175 4.3459 1.01487 6.17316C0.257995 8.00043 0.0599616 10.0111 0.445814 11.9509C0.831666 13.8907 1.78407 15.6725 3.1826 17.0711C4.58112 18.4696 6.36295 19.422 8.30276 19.8078C10.2426 20.1937 12.2532 19.9957 14.0805 19.2388C15.9078 18.4819 17.4695 17.2002 18.5684 15.5557C19.6672 13.9112 20.2537 11.9778 20.2537 10C20.2537 7.34783 19.2001 4.80429 17.3247 2.92893C15.4494 1.05357 12.9058 0 10.2537 0ZM10.2537 18.5714C8.5584 18.5714 6.9012 18.0687 5.49163 17.1269C4.08207 16.185 2.98345 14.8464 2.3347 13.2801C1.68595 11.7139 1.5162 9.99049 1.84694 8.3278C2.17767 6.6651 2.99401 5.13782 4.19275 3.93908C5.39149 2.74035 6.91877 1.924 8.58146 1.59327C10.2442 1.26254 11.9676 1.43228 13.5338 2.08103C15.1 2.72978 16.4387 3.8284 17.3805 5.23797C18.3224 6.64753 18.8251 8.30473 18.8251 10C18.8251 12.2733 17.922 14.4535 16.3146 16.0609C14.7071 17.6684 12.5269 18.5714 10.2537 18.5714ZM7.39652 10C7.39652 10.2825 7.31274 10.5587 7.15576 10.7937C6.99879 11.0286 6.77568 11.2117 6.51464 11.3198C6.2536 11.428 5.96637 11.4562 5.68925 11.4011C5.41214 11.346 5.15759 11.2099 4.9578 11.0101C4.75801 10.8104 4.62195 10.5558 4.56683 10.2787C4.51171 10.0016 4.54 9.71434 4.64812 9.45331C4.75625 9.19227 4.93935 8.96916 5.17428 8.81218C5.40921 8.65521 5.68541 8.57143 5.96795 8.57143C6.34683 8.57143 6.71019 8.72194 6.9781 8.98985C7.24601 9.25775 7.39652 9.62112 7.39652 10ZM11.6822 10C11.6822 10.2825 11.5985 10.5587 11.4415 10.7937C11.2845 11.0286 11.0614 11.2117 10.8004 11.3198C10.5393 11.428 10.2521 11.4562 9.97496 11.4011C9.69785 11.346 9.4433 11.2099 9.24351 11.0101C9.04372 10.8104 8.90766 10.5558 8.85254 10.2787C8.79742 10.0016 8.82571 9.71434 8.93384 9.45331C9.04196 9.19227 9.22507 8.96916 9.45999 8.81218C9.69492 8.65521 9.97112 8.57143 10.2537 8.57143C10.6325 8.57143 10.9959 8.72194 11.2638 8.98985C11.5317 9.25775 11.6822 9.62112 11.6822 10ZM15.9679 10C15.9679 10.2825 15.8842 10.5587 15.7272 10.7937C15.5702 11.0286 15.3471 11.2117 15.0861 11.3198C14.825 11.428 14.5378 11.4562 14.2607 11.4011C13.9836 11.346 13.729 11.2099 13.5292 11.0101C13.3294 10.8104 13.1934 10.5558 13.1383 10.2787C13.0831 10.0016 13.1114 9.71434 13.2195 9.45331C13.3277 9.19227 13.5108 8.96916 13.7457 8.81218C13.9806 8.65521 14.2568 8.57143 14.5394 8.57143C14.9183 8.57143 15.2816 8.72194 15.5495 8.98985C15.8174 9.25775 15.9679 9.62112 15.9679 10Z" fill="white"/>
</svg>
