<svg width="16" height="21" viewBox="0 0 16 21" fill="none" xmlns="http://www.w3.org/2000/svg">
<path d="M7.99951 0.492188C4.87451 0.492188 2.37451 2.99219 2.37451 6.11719V8.61719C1.31201 8.61719 0.499512 9.42969 0.499512 10.4922V18.6172C0.499512 19.6797 1.31201 20.4922 2.37451 20.4922H13.6245C14.687 20.4922 15.4995 19.6797 15.4995 18.6172V10.4922C15.4995 9.42969 14.687 8.61719 13.6245 8.61719V6.11719C13.6245 2.99219 11.1245 0.492188 7.99951 0.492188ZM14.2495 10.4922V18.6172C14.2495 18.9922 13.9995 19.2422 13.6245 19.2422H2.37451C1.99951 19.2422 1.74951 18.9922 1.74951 18.6172V10.4922C1.74951 10.1172 1.99951 9.86719 2.37451 9.86719H13.6245C13.9995 9.86719 14.2495 10.1172 14.2495 10.4922ZM3.62451 8.61719V6.11719C3.62451 3.67969 5.56201 1.74219 7.99951 1.74219C10.437 1.74219 12.3745 3.67969 12.3745 6.11719V8.61719H3.62451Z" fill="#B6B6B6"/>
<path d="M7.99951 11.7422C6.93701 11.7422 6.12451 12.5547 6.12451 13.6172C6.12451 14.4297 6.62451 15.1172 7.37451 15.3672V16.7422C7.37451 17.1172 7.62451 17.3672 7.99951 17.3672C8.37451 17.3672 8.62451 17.1172 8.62451 16.7422V15.3672C9.37451 15.1172 9.87451 14.4297 9.87451 13.6172C9.87451 12.5547 9.06201 11.7422 7.99951 11.7422ZM7.99951 14.2422C7.62451 14.2422 7.37451 13.9922 7.37451 13.6172C7.37451 13.2422 7.62451 12.9922 7.99951 12.9922C8.37451 12.9922 8.62451 13.2422 8.62451 13.6172C8.62451 13.9922 8.37451 14.2422 7.99951 14.2422Z" fill="#B6B6B6"/>
</svg>
