<svg width="23" height="21" viewBox="0 0 23 21" fill="none" xmlns="http://www.w3.org/2000/svg">
<path d="M22.0281 5.92064C21.8678 5.80783 21.6706 5.76534 21.4798 5.80253C21.2891 5.83971 21.1205 5.95353 21.0112 6.11894L19.5185 8.37663C19.1307 6.51292 18.2325 4.80041 16.8959 3.42178C15.0645 1.5326 12.6296 0.492188 10.0395 0.492188C7.44955 0.492188 5.01453 1.5326 3.18314 3.42178C-0.597506 7.32172 -0.597506 13.6674 3.18314 17.5672C5.07347 19.5172 7.5565 20.4922 10.0395 20.4922C12.5226 20.4922 15.0056 19.5172 16.8959 17.5672C17.0322 17.4254 17.1084 17.2338 17.108 17.0341C17.1076 16.8345 17.0305 16.6431 16.8937 16.5019C16.7568 16.3607 16.5714 16.2812 16.3778 16.2808C16.1843 16.2803 15.9984 16.359 15.861 16.4995C12.651 19.8107 7.42818 19.8107 4.21828 16.4995C1.00837 13.1883 1.00837 7.80056 4.21828 4.48937C5.77322 2.88546 7.84055 2.00208 10.0396 2.00208C12.2387 2.00208 14.3061 2.88546 15.861 4.48947C17.0611 5.72738 17.8433 7.28287 18.1385 8.97153L15.5406 7.14376C15.4612 7.08754 15.3719 7.04804 15.2776 7.02751C15.1834 7.00699 15.0862 7.00584 14.9916 7.02414C14.8969 7.04245 14.8067 7.07984 14.7261 7.13417C14.6455 7.1885 14.5761 7.25871 14.5218 7.34077C14.4676 7.42283 14.4295 7.51514 14.4099 7.61238C14.3903 7.70963 14.3895 7.80992 14.4075 7.9075C14.4255 8.00507 14.4621 8.09802 14.515 8.18101C14.5679 8.264 14.6361 8.3354 14.7159 8.39113L18.5912 11.1177L18.5918 11.1182C18.6514 11.1601 18.7167 11.1926 18.7856 11.2146C18.7877 11.2153 18.7896 11.2164 18.7917 11.217C18.8031 11.2207 18.8147 11.2221 18.8262 11.2251C18.8841 11.2406 18.9436 11.2488 19.0034 11.2494C19.1227 11.2496 19.2403 11.2197 19.3458 11.1622C19.4513 11.1048 19.5416 11.0216 19.6087 10.9199L22.2204 6.96982C22.2745 6.88791 22.3125 6.7958 22.3322 6.69874C22.3518 6.60168 22.3528 6.50158 22.3349 6.40416C22.3171 6.30673 22.2808 6.21388 22.2282 6.13092C22.1755 6.04796 22.1075 5.97651 22.0281 5.92064Z" fill="black"/>
</svg>
