<svg width="26" height="25" viewBox="0 0 26 25" fill="none" xmlns="http://www.w3.org/2000/svg">
<g clip-path="url(#clip0_425_5224)">
<path d="M12.6597 0C5.72379 0 0.0810547 5.60747 0.0810547 12.5C0.0810547 19.3925 5.72379 25 12.6597 25C19.5955 25 25.2383 19.3925 25.2383 12.5C25.2383 5.60747 19.5955 0 12.6597 0ZM12.6597 23.4375C6.59078 23.4375 1.65338 18.531 1.65338 12.5C1.65338 6.46904 6.59078 1.5625 12.6597 1.5625C18.7286 1.5625 23.666 6.46904 23.666 12.5C23.666 18.531 18.7286 23.4375 12.6597 23.4375ZM19.2858 16.3086C17.9114 18.6741 15.4344 20.0863 12.6599 20.0864C9.88525 20.0864 7.4081 18.6742 6.03354 16.3086C5.81641 15.935 5.9452 15.4571 6.32118 15.2414C6.69726 15.0256 7.17805 15.1537 7.39508 15.5272C8.48544 17.4037 10.4536 18.5239 12.6598 18.5239C14.8659 18.5238 16.834 17.4036 17.9242 15.5272C18.1413 15.1536 18.6221 15.0256 18.9981 15.2414C19.3741 15.4571 19.5029 15.9349 19.2858 16.3086ZM5.91232 9.42104C5.91232 8.55913 6.61796 7.85786 7.48534 7.85786C8.35272 7.85786 9.05835 8.55908 9.05835 9.42104C9.05835 10.283 8.35272 10.9842 7.48534 10.9842C6.61796 10.9842 5.91232 10.283 5.91232 9.42104ZM19.4071 9.42104C19.4071 10.283 18.7014 10.9842 17.8341 10.9842C16.9667 10.9842 16.261 10.283 16.261 9.42104C16.261 8.55908 16.9667 7.85786 17.8341 7.85786C18.7014 7.85791 19.4071 8.55913 19.4071 9.42104Z" fill="#8F8F8F"/>
</g>
<defs>
<clipPath id="clip0_425_5224">
<rect width="25.1572" height="25" fill="white" transform="translate(0.0810547)"/>
</clipPath>
</defs>
</svg>
