<svg width="17" height="16" viewBox="0 0 17 16" fill="none" xmlns="http://www.w3.org/2000/svg">
<path fill-rule="evenodd" clip-rule="evenodd" d="M3.13723 15.2554C3.29696 15.3709 3.483 15.4286 3.67092 15.4286C3.81562 15.4286 3.96032 15.3951 4.09562 15.3243L8.14155 13.217L12.1856 15.3243C12.4957 15.4844 12.8621 15.4584 13.144 15.2554C13.4278 15.0525 13.5649 14.7156 13.5067 14.3749L12.7343 9.91092L16.0117 6.75C16.2597 6.50986 16.348 6.15616 16.2409 5.82667C16.1319 5.49903 15.8519 5.26448 15.5062 5.21422L10.9829 4.56267L8.959 0.50262C8.80491 0.19174 8.49296 0 8.14343 0C7.7939 0 7.48195 0.193602 7.32785 0.50262L5.30395 4.56267L0.780706 5.21422C0.434932 5.26262 0.153051 5.49717 0.0459365 5.82667C-0.0630573 6.1543 0.0252653 6.508 0.2752 6.75L3.54689 9.91092L2.77454 14.3749C2.71629 14.7137 2.85535 15.0525 3.13723 15.2554ZM8.56397 12.0218C8.43242 11.953 8.28585 11.9176 8.14115 11.9176C7.99457 11.9176 7.84987 11.953 7.72021 12.0218L4.14596 13.8834L4.82811 9.94063C4.87885 9.64837 4.78113 9.35052 4.5669 9.14388L1.6748 6.35155L5.66999 5.77633C5.96503 5.73351 6.2206 5.54922 6.35402 5.28302L8.14303 1.6958L9.93015 5.28302C10.0617 5.54922 10.3173 5.73351 10.6142 5.77633L14.6094 6.35155L11.7173 9.14388C11.503 9.35052 11.4053 9.64837 11.4561 9.94063L12.1382 13.8834L8.56397 12.0218Z" fill="black"/>
<path d="M10.6006 7.71429C10.5914 7.71429 10.5822 7.71314 10.573 7.712L9.34146 7.53352C9.2553 7.52093 9.18062 7.46716 9.14156 7.38822L8.59126 6.27731C8.54416 6.18235 8.58322 6.0668 8.67857 6.01989C8.77393 5.97298 8.88996 6.01188 8.93707 6.10684L9.4598 7.16055L10.627 7.32987C10.7327 7.34474 10.8063 7.44314 10.7902 7.54839C10.7775 7.6445 10.6948 7.71429 10.6006 7.71429Z" fill="black" stroke="black" stroke-width="0.428571"/>
</svg>
