<svg width="26" height="25" viewBox="0 0 26 25" fill="none" xmlns="http://www.w3.org/2000/svg">
<path d="M11.8547 25.0001C11.7946 25.0002 11.7354 24.986 11.682 24.9588C11.6287 24.9316 11.5828 24.8922 11.5481 24.8438C11.0516 24.1509 10.746 23.3428 10.6613 22.4986C10.5765 21.6544 10.7155 20.8029 11.0647 20.0276C11.0847 19.9831 11.1134 19.9429 11.1492 19.9094C11.185 19.8759 11.2272 19.8496 11.2733 19.8322C11.3194 19.8148 11.3686 19.8066 11.4179 19.8079C11.4673 19.8093 11.5159 19.8202 11.5609 19.8402C11.7502 19.9243 11.8351 20.1424 11.7506 20.3298C11.4545 20.9874 11.3366 21.7096 11.4085 22.4256C11.4804 23.1416 11.7396 23.8269 12.1608 24.4145C12.2008 24.47 12.2245 24.5352 12.2294 24.603C12.2343 24.6709 12.2202 24.7387 12.1886 24.7992C12.157 24.8597 12.1091 24.9104 12.0502 24.9458C11.9913 24.9812 11.9237 25 11.8547 25.0001ZM14.9486 25.0001C14.881 25.0002 14.8147 24.9824 14.7566 24.9485C14.6985 24.9146 14.6507 24.8658 14.6184 24.8073C14.5861 24.7489 14.5704 24.6829 14.5729 24.6164C14.5755 24.5498 14.5963 24.4852 14.633 24.4293C16.4992 21.5712 15.9399 17.7402 13.3314 15.5181C13.2559 15.4538 13.2095 15.3627 13.2022 15.2647C13.195 15.1667 13.2275 15.0698 13.2927 14.9955C13.3578 14.9211 13.4503 14.8753 13.5497 14.8682C13.6491 14.861 13.7473 14.8931 13.8227 14.9573C16.7119 17.4195 17.3321 21.6635 15.2645 24.8297C15.2307 24.8821 15.184 24.9252 15.1287 24.9549C15.0735 24.9847 15.0115 25.0003 14.9486 25.0001Z" fill="white"/>
<path d="M11.4073 20.5489C11.3447 20.5488 11.2831 20.5333 11.2281 20.5038C11.1731 20.4743 11.1264 20.4317 11.0924 20.3798C11.0584 20.328 11.038 20.2686 11.0332 20.2071C11.0283 20.1455 11.0392 20.0838 11.0647 20.0274C11.4612 19.1562 11.6655 18.2119 11.6643 17.2571C11.6643 17.1589 11.7039 17.0647 11.7743 16.9952C11.8447 16.9257 11.9403 16.8867 12.0399 16.8867C12.1396 16.8867 12.2351 16.9257 12.3056 16.9952C12.376 17.0647 12.4156 17.1589 12.4156 17.2571C12.4168 18.3162 12.1902 19.3636 11.7507 20.33C11.721 20.3953 11.6728 20.4507 11.6119 20.4895C11.5509 20.5283 11.4799 20.549 11.4073 20.5489Z" fill="white"/>
<path d="M12.861 20.4992C12.8483 20.4992 12.8355 20.4984 12.8223 20.4977C12.7232 20.4875 12.6322 20.439 12.5692 20.3628C12.5063 20.2865 12.4765 20.1888 12.4865 20.091C12.5844 19.1593 12.3175 18.2259 11.7405 17.4818C11.7105 17.4431 11.6886 17.399 11.676 17.352C11.6634 17.3049 11.6603 17.2559 11.6669 17.2077C11.6735 17.1595 11.6896 17.113 11.7144 17.071C11.7392 17.0289 11.7722 16.9921 11.8115 16.9626C11.8507 16.9331 11.8955 16.9115 11.9432 16.899C11.9909 16.8866 12.0406 16.8835 12.0895 16.89C12.1384 16.8965 12.1855 16.9125 12.2282 16.9369C12.2708 16.9614 12.3082 16.9939 12.3381 17.0326C13.0306 17.9265 13.3511 19.0473 13.2341 20.1662C13.2248 20.2574 13.1816 20.342 13.1126 20.4036C13.0437 20.4651 12.954 20.4992 12.861 20.4992Z" fill="white"/>
<path d="M12.8602 20.4991C12.7898 20.4992 12.7208 20.4796 12.6611 20.4428C12.6014 20.4059 12.5534 20.3532 12.5226 20.2907C12.4918 20.2283 12.4795 20.1585 12.4871 20.0895C12.4947 20.0204 12.5218 19.9548 12.5653 19.9003C13.0672 19.2688 13.3925 18.5187 13.5089 17.7247C13.6253 16.9307 13.5287 16.1206 13.2288 15.3748C13.2101 15.3296 13.2006 15.2811 13.201 15.2322C13.2014 15.1833 13.2116 15.135 13.231 15.0901C13.2505 15.0451 13.2787 15.0044 13.3142 14.9702C13.3496 14.936 13.3916 14.9092 13.4377 14.8911C13.4837 14.873 13.533 14.8641 13.5825 14.8648C13.6321 14.8656 13.681 14.876 13.7265 14.8955C13.7719 14.915 13.813 14.9432 13.8474 14.9784C13.8818 15.0136 13.9087 15.0552 13.9267 15.1008C14.2752 15.9671 14.3875 16.9083 14.2523 17.8307C14.1171 18.753 13.7392 19.6244 13.1563 20.358C13.0819 20.4506 12.9718 20.4991 12.8602 20.4991ZM16.9781 12.4538C16.9079 12.4537 16.8391 12.4342 16.7795 12.3975C16.7199 12.3608 16.672 12.3084 16.6411 12.2462C16.6102 12.1839 16.5977 12.1144 16.6049 12.0455C16.6121 11.9766 16.6387 11.9111 16.6818 11.8564C17.0081 11.4436 17.2135 10.9505 17.2756 10.4307C17.3377 9.91088 17.2542 9.38423 17.0341 8.90794C17.0137 8.86371 17.0023 8.81595 17.0006 8.76738C16.999 8.71882 17.007 8.6704 17.0244 8.62491C17.0417 8.57943 17.068 8.53776 17.1017 8.50231C17.1354 8.46686 17.1759 8.43832 17.2208 8.41832C17.2657 8.39805 17.3141 8.38673 17.3634 8.385C17.4127 8.38327 17.4619 8.39117 17.5081 8.40824C17.5543 8.42531 17.5966 8.45122 17.6326 8.48448C17.6686 8.51774 17.6975 8.55768 17.7178 8.60202C17.9949 9.20105 18.1001 9.8635 18.0221 10.5174C17.9441 11.1712 17.6858 11.7915 17.2753 12.3108C17.2401 12.3554 17.195 12.3915 17.1435 12.4163C17.092 12.441 17.0355 12.4539 16.9781 12.4538Z" fill="white"/>
<path d="M16.9781 12.454C16.8899 12.4541 16.8044 12.4234 16.7369 12.3674C16.6693 12.3115 16.624 12.2338 16.6088 12.1481C16.3692 10.7998 15.8281 9.52112 15.0248 8.40468C14.2216 7.28824 13.1764 6.36208 11.965 5.69341C11.8781 5.64528 11.8142 5.56509 11.7873 5.47049C11.7604 5.37589 11.7727 5.27463 11.8215 5.18898C11.8703 5.10332 11.9516 5.0403 12.0476 5.01376C12.1436 4.98723 12.2463 4.99937 12.3331 5.0475C13.6415 5.76977 14.7704 6.77014 15.6379 7.976C16.5053 9.18187 17.0897 10.563 17.3485 12.0192C17.3582 12.0725 17.3559 12.1273 17.3417 12.1796C17.3275 12.232 17.3019 12.2806 17.2665 12.3221C17.2312 12.3636 17.1871 12.3969 17.1372 12.4197C17.0874 12.4425 17.033 12.4542 16.9781 12.454ZM9.58636 13.2751C9.49967 13.275 9.41569 13.2453 9.34866 13.1911C9.28163 13.1369 9.23568 13.0615 9.2186 12.9777C9.05777 12.1938 8.70593 11.4603 8.19344 10.8403C8.13053 10.7642 8.10088 10.6665 8.11102 10.5687C8.12117 10.471 8.17027 10.3813 8.24754 10.3192C8.3248 10.2572 8.42389 10.228 8.52301 10.238C8.62213 10.248 8.71316 10.2964 8.77608 10.3726C9.36509 11.0863 9.76972 11.9303 9.95526 12.8321C9.96616 12.8859 9.96481 12.9414 9.95132 12.9946C9.93782 13.0478 9.91251 13.0974 9.87722 13.1397C9.84192 13.1821 9.79752 13.2162 9.74722 13.2397C9.69693 13.2631 9.64198 13.2752 9.58636 13.2751Z" fill="white"/>
<path d="M9.58643 13.2752C9.51666 13.2751 9.4483 13.2559 9.389 13.2197C9.32971 13.1834 9.28181 13.1316 9.25069 13.0701C9.21957 13.0085 9.20645 12.9396 9.2128 12.8711C9.21916 12.8027 9.24473 12.7373 9.28666 12.6823C10.8912 10.572 11.7631 8.00799 11.7731 5.3706C11.7732 5.32201 11.7829 5.27391 11.8018 5.22904C11.8207 5.18417 11.8484 5.14341 11.8833 5.10908C11.9182 5.07476 11.9596 5.04755 12.0051 5.029C12.0507 5.01045 12.0995 5.00093 12.1488 5.00098H12.1495C12.1988 5.00107 12.2477 5.01075 12.2932 5.02945C12.3387 5.04815 12.3801 5.07552 12.4149 5.10998C12.4497 5.14444 12.4773 5.18532 12.4961 5.23029C12.5149 5.27526 12.5245 5.32344 12.5244 5.37208C12.5138 8.16965 11.5889 10.8893 9.88695 13.1278C9.85182 13.1736 9.8064 13.2108 9.75426 13.2363C9.70211 13.2619 9.64467 13.2752 9.58643 13.2752ZM20.6156 17.3744H20.5995C20.4999 17.3703 20.4061 17.3273 20.3387 17.255C20.2713 17.1827 20.2358 17.087 20.24 16.9888C20.3001 15.5193 20.0532 14.0532 19.5145 12.6817C18.9758 11.3101 18.1568 10.0624 17.1085 9.01607C17.0384 8.94623 16.9992 8.85178 16.9997 8.7535C17.0002 8.65522 17.0403 8.56116 17.1111 8.49201C17.182 8.42286 17.2778 8.38428 17.3775 8.38477C17.4771 8.38525 17.5725 8.42476 17.6427 8.4946C18.7635 9.61368 19.639 10.9479 20.2149 12.4146C20.7908 13.8812 21.0548 15.4489 20.9905 17.0203C20.9864 17.1156 20.9451 17.2057 20.8753 17.2717C20.8054 17.3377 20.7124 17.3745 20.6156 17.3744Z" fill="white"/>
<path d="M14.9489 24.9999C14.8604 25.0001 14.7747 24.9694 14.7069 24.9134C14.6391 24.8573 14.5936 24.7794 14.5783 24.6935C14.563 24.6075 14.579 24.5191 14.6234 24.4436C14.6679 24.3682 14.7379 24.3106 14.8212 24.2811C16.3582 23.7357 17.6951 22.7503 18.6606 21.4512C19.626 20.152 20.1761 18.5983 20.2404 16.989C20.249 16.785 20.4248 16.6172 20.6314 16.6346C20.8388 16.6424 20.9995 16.8153 20.9909 17.0201C20.9208 18.7763 20.3205 20.4718 19.267 21.8895C18.2134 23.3072 16.7546 24.3825 15.0774 24.9777C15.0349 24.9925 14.9917 24.9999 14.9489 24.9999ZM11.8546 24.9999C11.8272 24.9999 11.7994 24.997 11.7709 24.9907C9.41778 24.4648 7.40428 22.7648 6.51586 20.5541C5.70595 18.5408 5.85659 16.2076 6.91931 14.3128C6.96998 14.2315 7.05045 14.1727 7.14401 14.1484C7.23756 14.1242 7.337 14.1364 7.42165 14.1826C7.50629 14.2287 7.56964 14.3053 7.59852 14.3963C7.6274 14.4873 7.61959 14.5858 7.57671 14.6713C6.6218 16.3735 6.48619 18.4712 7.2142 20.2808C8.01284 22.267 9.82236 23.7948 11.9373 24.2674C12.0277 24.2873 12.1076 24.3394 12.1614 24.4137C12.2153 24.4881 12.2394 24.5794 12.2292 24.6702C12.2189 24.761 12.175 24.8449 12.1059 24.9057C12.0368 24.9666 11.9473 25.0001 11.8546 24.9999Z" fill="white"/>
<path d="M7.24761 14.8629C7.18233 14.8627 7.11822 14.8458 7.0616 14.8137C7.00497 14.7817 6.95777 14.7357 6.92464 14.6803C6.89151 14.6248 6.8736 14.5618 6.87266 14.4975C6.87172 14.4331 6.88779 14.3696 6.91929 14.3133C7.56935 13.1573 7.97472 11.8834 8.11086 10.5685C8.11592 10.5201 8.1306 10.4731 8.15406 10.4303C8.17753 10.3875 8.20932 10.3496 8.24762 10.3189C8.28592 10.2882 8.32998 10.2652 8.37729 10.2513C8.4246 10.2374 8.47422 10.2328 8.52333 10.2378C8.57244 10.2428 8.62007 10.2572 8.66351 10.2804C8.70695 10.3035 8.74533 10.3349 8.77648 10.3726C8.80763 10.4104 8.83094 10.4538 8.84506 10.5005C8.85918 10.5471 8.86385 10.596 8.85879 10.6444C8.71226 12.0584 8.27622 13.4284 7.57706 14.6714C7.54447 14.7294 7.49674 14.7777 7.43881 14.8114C7.38088 14.8451 7.31486 14.8628 7.24761 14.8629Z" fill="white"/>
</svg>
