<svg width="35" height="26" viewBox="0 0 35 26" fill="none" xmlns="http://www.w3.org/2000/svg">
<path d="M22.0681 10.9292L17.1078 8.07561C16.7993 7.89441 16.4477 7.79885 16.0896 7.79885C15.7315 7.79885 15.3799 7.89441 15.0713 8.07561C14.4348 8.44225 14.0555 9.09766 14.0555 9.83095V15.5398C14.0555 16.2715 14.4348 16.9301 15.0713 17.2952C15.3803 17.4751 15.7317 17.5699 16.0896 17.5699C16.4474 17.5699 16.7989 17.4751 17.1078 17.2952L22.0681 14.4432C22.7046 14.0749 23.0855 13.4179 23.0855 12.6862C23.0855 11.9529 22.7046 11.2959 22.0681 10.9292ZM25.262 4.94294C25.0308 4.72208 24.7218 4.60058 24.4016 4.60463C24.0814 4.60867 23.7756 4.73793 23.5501 4.96456C23.3246 5.19118 23.1975 5.49703 23.1962 5.81617C23.1948 6.13531 23.3194 6.4422 23.5429 6.6707C25.1578 8.26542 26.0467 10.402 26.0467 12.6862C26.0467 14.9704 25.1578 17.107 23.5429 18.7017C23.3331 18.9328 23.2202 19.2353 23.2273 19.5469C23.2345 19.8585 23.3612 20.1555 23.5814 20.3769C23.8017 20.5982 24.0986 20.727 24.4112 20.7368C24.7238 20.7466 25.0283 20.6366 25.262 20.4295C26.2897 19.4176 27.1045 18.2116 27.6585 16.882C28.2126 15.5523 28.4947 14.1259 28.4885 12.6862C28.4947 11.2465 28.2126 9.82006 27.6585 8.49044C27.1045 7.16081 26.2897 5.95476 25.262 4.94294ZM11.4639 4.95105C11.3511 4.83745 11.2169 4.74713 11.069 4.68524C10.9211 4.62334 10.7624 4.5911 10.602 4.59035C10.4416 4.58959 10.2826 4.62034 10.1341 4.68084C9.98567 4.74134 9.85062 4.83041 9.7367 4.94294C8.70934 5.95495 7.89494 7.16108 7.34119 8.49068C6.78745 9.82029 6.50549 11.2466 6.51183 12.6862C6.50527 14.126 6.78712 15.5527 7.34088 16.8826C7.89463 18.2125 8.70915 19.4189 9.7367 20.4311C9.85062 20.5436 9.98567 20.6327 10.1341 20.6932C10.2826 20.7537 10.4416 20.7844 10.602 20.7837C10.7624 20.7829 10.9211 20.7507 11.069 20.6888C11.2169 20.6269 11.3511 20.5366 11.4639 20.423C11.5768 20.3094 11.6662 20.1749 11.7269 20.0269C11.7876 19.8789 11.8185 19.7205 11.8177 19.5607C11.817 19.4008 11.7846 19.2427 11.7225 19.0953C11.6604 18.9479 11.5698 18.8142 11.4558 18.7017C9.84089 17.107 8.95368 14.9704 8.95368 12.6862C8.95368 10.402 9.84089 8.26542 11.4558 6.67232C11.5698 6.55986 11.6604 6.42612 11.7225 6.27873C11.7846 6.13135 11.817 5.97322 11.8177 5.81337C11.8185 5.65352 11.7876 5.49509 11.7269 5.34713C11.6662 5.19917 11.5768 5.06458 11.4639 4.95105Z" fill="white"/>
<path d="M29.8721 0.356486C29.7586 0.243466 29.624 0.153813 29.4758 0.0926472C29.3277 0.0314813 29.1688 3.76582e-09 29.0085 0C28.8481 -3.76582e-09 28.6893 0.0314813 28.5411 0.0926472C28.3929 0.153813 28.2583 0.243466 28.1449 0.356486C28.0314 0.469506 27.9415 0.60368 27.8801 0.751347C27.8187 0.899015 27.7871 1.05728 27.7871 1.21712C27.7871 1.37695 27.8187 1.53522 27.8801 1.68289C27.9415 1.83056 28.0314 1.96473 28.1449 2.07775C30.9904 4.91354 32.5581 8.68053 32.5581 12.686C32.5581 16.6915 30.9904 20.4601 28.1449 23.2959C28.0314 23.4089 27.9415 23.5431 27.8801 23.6907C27.8187 23.8384 27.7871 23.9967 27.7871 24.1565C27.7871 24.3163 27.8187 24.4746 27.8801 24.6223C27.9415 24.7699 28.0314 24.9041 28.1449 25.0171C28.2583 25.1302 28.3929 25.2198 28.5411 25.281C28.6893 25.3421 28.8481 25.3736 29.0085 25.3736C29.1688 25.3736 29.3277 25.3421 29.4758 25.281C29.624 25.2198 29.7586 25.1302 29.8721 25.0171C31.5022 23.4015 32.7947 21.4798 33.6749 19.3632C34.5551 17.2466 35.0055 14.9771 35 12.686C35 8.02999 33.1783 3.65139 29.8721 0.356486ZM2.44191 12.686C2.43687 10.7147 2.82418 8.76192 3.58143 6.94075C4.33868 5.11957 5.45083 3.46614 6.85352 2.07613C6.96683 1.96322 7.0567 1.82917 7.11802 1.68164C7.17934 1.53411 7.2109 1.37599 7.2109 1.21631C7.2109 1.05662 7.17934 0.898504 7.11802 0.750975C7.0567 0.603447 6.96683 0.469399 6.85352 0.356486C6.74022 0.243573 6.60571 0.154005 6.45767 0.0928963C6.30963 0.031788 6.15097 0.00033573 5.99073 0.000335732C5.8305 0.000335733 5.67183 0.031788 5.5238 0.0928963C5.37576 0.154005 5.24125 0.243572 5.12795 0.356486C3.49765 1.97166 2.20499 3.89303 1.32478 6.00939C0.444582 8.12575 -0.00568177 10.3951 5.41192e-05 12.686C5.41192e-05 17.3404 1.82168 21.7206 5.12795 25.0171C5.24097 25.1305 5.37539 25.2205 5.52347 25.282C5.67154 25.3434 5.83035 25.375 5.99073 25.375C6.15112 25.375 6.30993 25.3434 6.458 25.282C6.60608 25.2205 6.7405 25.1305 6.85352 25.0171C6.96698 24.9041 7.05698 24.77 7.11839 24.6223C7.17979 24.4746 7.2114 24.3164 7.2114 24.1565C7.2114 23.9967 7.17979 23.8384 7.11839 23.6907C7.05698 23.543 6.96698 23.4089 6.85352 23.2959C5.45083 21.9059 4.33868 20.2524 3.58143 18.4313C2.82418 16.6101 2.43687 14.6573 2.44191 12.686Z" fill="white"/>
</svg>
