<svg width="18" height="21" viewBox="0 0 18 21" fill="none" xmlns="http://www.w3.org/2000/svg">
<path d="M8.71637 10.1263C10.0399 10.1263 11.1858 9.65154 12.1224 8.71494C13.0587 7.77854 13.5335 6.63276 13.5335 5.30909C13.5335 3.98581 13.0589 2.83992 12.1223 1.90316C11.1857 0.966874 10.0397 0.492188 8.71637 0.492188C7.39266 0.492188 6.24684 0.966874 5.31044 1.90332C4.37404 2.83976 3.89915 3.9857 3.89915 5.30909C3.89915 6.63276 4.374 7.7787 5.31048 8.71514C6.2472 9.65143 7.39313 10.1263 8.71633 10.1263H8.71637ZM6.13931 2.73203C6.85782 2.01347 7.70075 1.66422 8.71637 1.66422C9.73184 1.66422 10.5749 2.01347 11.2936 2.73203C12.0121 3.4507 12.3615 4.29374 12.3615 5.30905C12.3615 6.32468 12.0121 7.1676 11.2936 7.88627C10.5749 8.60498 9.73184 8.95424 8.71637 8.95424C7.70102 8.95424 6.85817 8.60483 6.13931 7.88627C5.4206 7.16776 5.07118 6.32472 5.07118 5.30909C5.07118 4.29374 5.4206 3.4507 6.13931 2.73203ZM17.1451 15.8712C17.1181 15.4815 17.0635 15.0563 16.9831 14.6075C16.9019 14.1552 16.7974 13.7276 16.6723 13.3368C16.5429 12.9329 16.3673 12.5341 16.1498 12.1519C15.9244 11.7551 15.6596 11.4097 15.3623 11.1254C15.0515 10.828 14.6709 10.5889 14.2309 10.4145C13.7923 10.241 13.3063 10.1531 12.7865 10.1531C12.5823 10.1531 12.3849 10.2369 12.0036 10.4852C11.7325 10.6617 11.4606 10.8369 11.188 11.011C10.926 11.1779 10.5711 11.3343 10.1327 11.4759C9.70496 11.6143 9.27071 11.6845 8.84192 11.6845C8.41348 11.6845 7.97918 11.6143 7.55118 11.4759C7.11329 11.3344 6.75821 11.1781 6.49665 11.0111C6.19313 10.8172 5.91852 10.6402 5.68032 10.485C5.29931 10.2367 5.10185 10.1529 4.89771 10.1529C4.37767 10.1529 3.89185 10.241 3.45345 10.4147C3.01369 10.5888 2.63298 10.8279 2.32185 11.1256C2.02463 11.41 1.75974 11.7553 1.53451 12.1519C1.3174 12.5341 1.14162 12.9328 1.01221 13.337C0.887206 13.7278 0.782714 14.1552 0.701543 14.6075C0.620957 15.0558 0.566504 15.481 0.539473 15.8716C0.51291 16.2536 0.499512 16.6511 0.499512 17.0527C0.499512 18.0967 0.831386 18.9418 1.48584 19.5652C2.1322 20.1803 2.98732 20.4921 4.02747 20.4921H13.6576C14.6975 20.4921 15.5526 20.1803 16.1991 19.5652C16.8537 18.9423 17.1856 18.0968 17.1856 17.0525C17.1854 16.6495 17.1719 16.252 17.1451 15.8712ZM15.391 18.716C14.9639 19.1225 14.3969 19.3201 13.6574 19.3201H4.02751C3.28794 19.3201 2.72091 19.1225 2.29396 18.7162C1.87513 18.3175 1.67158 17.7732 1.67158 17.0527C1.67158 16.6779 1.68392 16.3079 1.70869 15.9527C1.73275 15.6041 1.78205 15.2213 1.85517 14.8145C1.92732 14.4127 2.01916 14.0357 2.12841 13.6944C2.23326 13.367 2.37623 13.043 2.55353 12.7308C2.72275 12.4332 2.91744 12.1779 3.13228 11.9723C3.33326 11.7799 3.58658 11.6224 3.88501 11.5043C4.16103 11.395 4.47126 11.3352 4.80802 11.3262C4.84903 11.3481 4.92216 11.3897 5.04056 11.4669C5.28149 11.6239 5.55919 11.8031 5.86622 11.9991C6.21231 12.2198 6.65813 12.419 7.19083 12.591C7.7354 12.7671 8.29082 12.8565 8.84211 12.8565C9.39344 12.8565 9.94899 12.7671 10.4933 12.5911C11.0264 12.4189 11.4721 12.2198 11.8187 11.9988C12.1328 11.798 12.4028 11.6241 12.6437 11.4669C12.7621 11.3898 12.8352 11.348 12.8762 11.3262C13.2132 11.3352 13.5234 11.395 13.7995 11.5043C14.0978 11.6224 14.3512 11.78 14.5521 11.9722C14.7669 12.1778 14.9616 12.4331 15.1308 12.731C15.3083 13.043 15.4515 13.3672 15.5561 13.6942C15.6655 14.036 15.7575 14.4129 15.8296 14.8143C15.9025 15.2219 15.9519 15.6049 15.976 15.9528V15.9531C16.0009 16.307 16.0134 16.6768 16.0136 17.0527C16.0134 17.7734 15.8099 18.3175 15.391 18.716H15.391Z" fill="#B6B6B6"/>
</svg>
